<?xml version="1.0" encoding="utf-8"?>
<!-- Generator: Adobe Illustrator 26.0.0, SVG Export Plug-In . SVG Version: 6.00 Build 0)  -->
<svg version="1.1" id="图层_1" xmlns="http://www.w3.org/2000/svg" xmlns:xlink="http://www.w3.org/1999/xlink" x="0px" y="0px"
	 viewBox="0 0 500 500" style="enable-background:new 0 0 500 500;" xml:space="preserve">
<style type="text/css">
	.st0{fill:#E8F2FE;}
	.st1{fill:url(#SVGID_1_);}
	.st2{fill:#BEDAFF;}
	.st3{fill:#00E9FF;}
	.st4{fill:#632C9B;}
	.st5{fill:#0382FF;}
	.st6{fill:#C3E0FE;}
	.st7{fill:url(#SVGID_00000059303399258130573590000010780377751541394351_);}
	.st8{fill:url(#SVGID_00000077296000772506210850000001006835038841247397_);}
	.st9{fill:url(#SVGID_00000154425918101162969040000009091546188448050586_);}
	.st10{fill:url(#SVGID_00000103971493495143545930000006770169355336260508_);}
	.st11{fill:url(#SVGID_00000038396942987930322870000014432718023368380095_);}
	.st12{fill:url(#SVGID_00000170239658201572848660000006603019618445994642_);}
	.st13{fill:url(#SVGID_00000138563965268324695590000005025790906723266199_);}
	.st14{fill:url(#SVGID_00000026884625586301257960000009913799350496009371_);}
	.st15{fill:url(#SVGID_00000124126806704062833630000013043964233992948667_);}
	.st16{fill:url(#SVGID_00000031203025955961480800000014512768392591631030_);}
	.st17{fill:url(#SVGID_00000023265016409329828960000015862978946347437230_);}
	.st18{fill:url(#SVGID_00000157989419911063291760000016583781052381722527_);}
	.st19{fill:url(#SVGID_00000057111558059844694180000011290844684708332439_);}
	.st20{fill:url(#SVGID_00000177464953753449762530000001850396593736274870_);}
	.st21{fill:#A9BDEA;}
	.st22{fill:url(#SVGID_00000154397601465797613500000012839169512683835820_);}
	.st23{fill:url(#SVGID_00000065071595973164188880000017889981789112232577_);}
	.st24{fill:#A3B9E8;}
	.st25{fill:#7B97C9;}
	.st26{fill:#90A9D6;}
	.st27{opacity:0.32;}
	.st28{fill:#FFFFFF;}
	.st29{display:none;fill:url(#SVGID_00000137820560840487225380000007541447723755245477_);}
	.st30{fill:url(#SVGID_00000110434580338593840460000013605224424333333682_);}
	.st31{fill:url(#SVGID_00000096037775105718383360000007139565281067950762_);}
	.st32{fill:#925FCE;}
	.st33{fill:#7E19F4;}
	.st34{fill:#9CC0E8;}
	.st35{fill:url(#SVGID_00000023239932607541949270000000384173215946109865_);}
	.st36{fill:url(#SVGID_00000182519222269063370910000016882647424977986468_);}
	.st37{fill:url(#SVGID_00000124156090204987339520000005175056606261695909_);}
	.st38{fill:url(#SVGID_00000002381889102394235670000008426317335398396041_);}
	.st39{fill:#BDCEFA;}
	.st40{fill:#9469D1;}
	.st41{fill:url(#SVGID_00000126299709814631273210000006367935524011861643_);}
	.st42{fill:url(#SVGID_00000127761996668133380300000007957454410930832830_);}
	.st43{fill:url(#SVGID_00000150801715988537807580000017002041900936454553_);}
	.st44{fill:url(#SVGID_00000005967231062410940840000011563905512773147268_);}
	.st45{fill:url(#SVGID_00000132798629850447105360000004473063231046657964_);}
	.st46{fill:url(#SVGID_00000168830815464060619120000000622458444732649631_);}
	.st47{fill:url(#SVGID_00000102534737678623121030000008308449920346720959_);}
	.st48{fill:url(#SVGID_00000109022646026035041170000001572791125925909902_);}
	.st49{fill:url(#SVGID_00000095317819588829591360000005965405850058319508_);}
	.st50{fill:url(#SVGID_00000156581150309098791190000012380788845293381013_);}
	.st51{fill:url(#SVGID_00000165216935863939187710000010118458664226242232_);}
	.st52{fill:url(#SVGID_00000112608870350616133740000008317005349136176528_);}
	.st53{fill:url(#SVGID_00000102542607788533812860000012282035147350154636_);}
	.st54{fill:#2D0D60;}
	.st55{fill:#FCC4B7;}
	.st56{fill:#293677;}
	.st57{fill:#DD936F;}
	.st58{fill-rule:evenodd;clip-rule:evenodd;fill:#B25E02;}
	.st59{fill:#FEFEFE;}
	.st60{fill:url(#SVGID_00000153668627931609839200000008264386967867514553_);}
	.st61{fill:url(#SVGID_00000075849613830479587350000014574218492356054145_);}
	.st62{fill:url(#SVGID_00000075873093539123264260000006217538405536223369_);}
	.st63{fill:url(#SVGID_00000155140718885091771950000003141521004496250499_);}
	.st64{fill:url(#SVGID_00000037654100942938627650000010274650114678273423_);}
	.st65{fill:url(#SVGID_00000163069018714977864500000001297243845869207727_);}
	.st66{fill:url(#SVGID_00000134248527824305941830000003908808105886394790_);}
	.st67{fill:url(#SVGID_00000119834067375786306880000008927702835282573195_);}
	.st68{fill:url(#SVGID_00000172435191539560555990000004043453690039954821_);}
	.st69{fill:url(#SVGID_00000113351962790288758630000004203402423023632264_);}
	.st70{fill:url(#SVGID_00000079478713893758189670000009167922324559839638_);}
	.st71{fill:url(#SVGID_00000104675884226495325810000005385923055553612475_);}
	.st72{fill:url(#SVGID_00000174574852069204521870000008093465625759463868_);}
	.st73{fill:url(#SVGID_00000124132106739188395820000010790090665839259527_);}
	.st74{fill:url(#SVGID_00000179640776952124306040000012882436668291758744_);}
	.st75{fill:url(#SVGID_00000180330609532906921820000014797833167965149580_);}
	.st76{fill:url(#SVGID_00000161634088921587723760000001442702575605376640_);}
	.st77{fill:url(#SVGID_00000174588876571064446540000011873632749229079731_);}
	.st78{fill:url(#SVGID_00000038389908990314142290000004958779939849275063_);}
	.st79{fill:url(#SVGID_00000036932547979797604540000005093005861642369941_);}
	.st80{fill:url(#SVGID_00000034806192165632997340000015163135545092271247_);}
	.st81{fill:url(#SVGID_00000047764319293307061330000007048680331769364891_);}
	.st82{fill:url(#SVGID_00000052098570248621487410000009171593633259148215_);}
	.st83{fill:url(#SVGID_00000124878762306148263440000007032972690684290743_);}
	.st84{fill:url(#SVGID_00000155135812236070331400000002147892106300300421_);}
	.st85{fill:url(#SVGID_00000007397262466084023350000006272679853705619344_);}
	.st86{fill:url(#SVGID_00000112590370134091629100000005008616228058646972_);}
	.st87{fill:url(#SVGID_00000164474377893927925460000000940244256529730946_);}
	.st88{fill:#484968;}
	.st89{fill:#F1AC85;}
	.st90{fill:#943BBB;}
	.st91{fill:#8800BF;}
	.st92{fill:#FFFFEB;}
	.st93{fill:#1F1F1F;}
	.st94{fill:#54A5F8;}
	.st95{fill:url(#SVGID_00000176017252881632430300000003299672630951456649_);}
	.st96{fill:#010400;}
	.st97{fill:#E28C66;}
	.st98{fill:url(#SVGID_00000089575814973800625110000016555534421593311660_);}
	.st99{fill:url(#SVGID_00000153686231176941356750000014682454725936694428_);}
	.st100{fill:url(#SVGID_00000083773026352682242300000008837689192405285784_);}
	.st101{fill:url(#SVGID_00000170273524530672989380000001987681749202897836_);}
	.st102{fill:url(#SVGID_00000142142352981282375360000011673237274714581143_);}
	.st103{fill:url(#SVGID_00000136379194117094714680000015755756411085608346_);}
	.st104{fill:#B6B9FE;}
	.st105{fill:#F9AB83;}
	.st106{fill:#2D2D4F;}
	.st107{fill:#1C1C38;}
	.st108{fill:#46466C;}
	.st109{fill:#E5A89C;}
	.st110{fill-rule:evenodd;clip-rule:evenodd;fill:#E58800;}
	.st111{fill:none;}
</style>
<g id="BACKGROUND">
	<rect class="st0" width="500" height="500"/>
</g>
<g id="OBJECTS">
	
		<radialGradient id="SVGID_1_" cx="-1060.0023" cy="-702.5441" r="138.1613" gradientTransform="matrix(0.866 -0.5 -0.866 -0.5 558.7838 -554.4085)" gradientUnits="userSpaceOnUse">
		<stop  offset="0" style="stop-color:#EAFDF7"/>
		<stop  offset="1" style="stop-color:#FFFFFF;stop-opacity:0"/>
	</radialGradient>
	<path class="st1" d="M66.3,326.9l182.9,105.6l183-105.6l-183-105.7L66.3,326.9z M262.5,424l-13.4,7.7l-13.4-7.7l13.4-7.7L262.5,424
		z M248.5,415.9l-13.4,7.7l-13.4-7.7l13.4-7.7L248.5,415.9z M234.5,407.8l-13.4,7.7l-13.4-7.7l13.4-7.7L234.5,407.8z M220.5,399.7
		l-13.4,7.7l-13.4-7.7l13.4-7.7L220.5,399.7z M206.4,391.6l-13.4,7.7l-13.4-7.7l13.4-7.7L206.4,391.6z M192.4,383.5l-13.4,7.7
		l-13.4-7.7l13.4-7.7L192.4,383.5z M178.4,375.4l-13.4,7.7l-13.4-7.7l13.4-7.7L178.4,375.4z M164.4,367.3L151,375l-13.4-7.7
		l13.4-7.7L164.4,367.3z M150.4,359.2L137,367l-13.4-7.7l13.4-7.7L150.4,359.2z M136.4,351.2l-13.4,7.7l-13.4-7.7l13.4-7.7
		L136.4,351.2z M122.3,343.1l-13.4,7.7l-13.4-7.7l13.4-7.7L122.3,343.1z M108.3,335l-13.4,7.7L81.6,335l13.4-7.7L108.3,335z
		 M94.3,326.9l-13.4,7.7l-13.4-7.7l13.4-7.7L94.3,326.9z M276.5,415.9l-13.4,7.7l-13.4-7.7l13.4-7.7L276.5,415.9z M262.5,407.8
		l-13.4,7.7l-13.4-7.7l13.4-7.7L262.5,407.8z M248.5,399.7l-13.4,7.7l-13.4-7.7l13.4-7.7L248.5,399.7z M234.5,391.6l-13.4,7.7
		l-13.4-7.7l13.4-7.7L234.5,391.6z M220.5,383.5l-13.4,7.7l-13.4-7.7l13.4-7.7L220.5,383.5z M206.4,375.4l-13.4,7.7l-13.4-7.7
		l13.4-7.7L206.4,375.4z M192.4,367.3L179,375l-13.4-7.7l13.4-7.7L192.4,367.3z M178.4,359.2L165,367l-13.4-7.7l13.4-7.7
		L178.4,359.2z M164.4,351.1l-13.4,7.7l-13.4-7.7l13.4-7.7L164.4,351.1z M150.4,343.1l-13.4,7.7l-13.4-7.7l13.4-7.7L150.4,343.1z
		 M136.4,335l-13.4,7.7l-13.4-7.7l13.4-7.7L136.4,335z M122.3,326.9l-13.4,7.7l-13.4-7.7l13.4-7.7L122.3,326.9z M108.3,318.8
		l-13.4,7.7l-13.4-7.7l13.4-7.7L108.3,318.8z M290.6,407.8l-13.4,7.7l-13.4-7.7l13.4-7.7L290.6,407.8z M276.5,399.7l-13.4,7.7
		l-13.4-7.7l13.4-7.7L276.5,399.7z M262.5,391.6l-13.4,7.7l-13.4-7.7l13.4-7.7L262.5,391.6z M248.5,383.5l-13.4,7.7l-13.4-7.7
		l13.4-7.7L248.5,383.5z M234.5,375.4l-13.4,7.7l-13.4-7.7l13.4-7.7L234.5,375.4z M220.5,367.3l-13.4,7.7l-13.4-7.7l13.4-7.7
		L220.5,367.3z M206.5,359.2l-13.4,7.7l-13.4-7.7l13.4-7.7L206.5,359.2z M192.4,351.1l-13.4,7.7l-13.4-7.7l13.4-7.7L192.4,351.1z
		 M178.4,343l-13.4,7.7l-13.4-7.7l13.4-7.7L178.4,343z M164.4,335l-13.4,7.7l-13.4-7.7l13.4-7.7L164.4,335z M150.4,326.9l-13.4,7.7
		l-13.4-7.7l13.4-7.7L150.4,326.9z M136.4,318.8l-13.4,7.7l-13.4-7.7L123,311L136.4,318.8z M122.4,310.7l-13.4,7.7l-13.4-7.7
		L109,303L122.4,310.7z M304.6,399.7l-13.4,7.7l-13.4-7.7l13.4-7.7L304.6,399.7z M290.6,391.6l-13.4,7.7l-13.4-7.7l13.4-7.7
		L290.6,391.6z M276.6,383.5l-13.4,7.7l-13.4-7.7l13.4-7.7L276.6,383.5z M262.5,375.4l-13.4,7.7l-13.4-7.7l13.4-7.7L262.5,375.4z
		 M248.5,367.3l-13.4,7.7l-13.4-7.7l13.4-7.7L248.5,367.3z M234.5,359.2l-13.4,7.7l-13.4-7.7l13.4-7.7L234.5,359.2z M220.5,351.1
		l-13.4,7.7l-13.4-7.7l13.4-7.7L220.5,351.1z M206.5,343l-13.4,7.7l-13.4-7.7l13.4-7.7L206.5,343z M192.4,334.9l-13.4,7.7l-13.4-7.7
		l13.4-7.7L192.4,334.9z M178.4,326.9l-13.4,7.7l-13.4-7.7l13.4-7.7L178.4,326.9z M164.4,318.8l-13.4,7.7l-13.4-7.7L151,311
		L164.4,318.8z M150.4,310.7l-13.4,7.7l-13.4-7.7L137,303L150.4,310.7z M136.4,302.6l-13.4,7.7l-13.4-7.7l13.4-7.7L136.4,302.6z
		 M318.6,391.6l-13.4,7.7l-13.4-7.7l13.4-7.7L318.6,391.6z M304.6,383.5l-13.4,7.7l-13.4-7.7l13.4-7.7L304.6,383.5z M290.6,375.4
		l-13.4,7.7l-13.4-7.7l13.4-7.7L290.6,375.4z M276.6,367.3l-13.4,7.7l-13.4-7.7l13.4-7.7L276.6,367.3z M262.5,359.2l-13.4,7.7
		l-13.4-7.7l13.4-7.7L262.5,359.2z M248.5,351.1l-13.4,7.7l-13.4-7.7l13.4-7.7L248.5,351.1z M234.5,343l-13.4,7.7l-13.4-7.7
		l13.4-7.7L234.5,343z M220.5,334.9l-13.4,7.7l-13.4-7.7l13.4-7.7L220.5,334.9z M206.5,326.9l-13.4,7.7l-13.4-7.7l13.4-7.7
		L206.5,326.9z M192.5,318.8l-13.4,7.7l-13.4-7.7l13.4-7.7L192.5,318.8z M178.4,310.7l-13.4,7.7l-13.4-7.7L165,303L178.4,310.7z
		 M164.4,302.6l-13.4,7.7l-13.4-7.7l13.4-7.7L164.4,302.6z M150.4,294.5l-13.4,7.7l-13.4-7.7l13.4-7.7L150.4,294.5z M332.6,383.5
		l-13.4,7.7l-13.4-7.7l13.4-7.7L332.6,383.5z M318.6,375.4l-13.4,7.7l-13.4-7.7l13.4-7.7L318.6,375.4z M304.6,367.3l-13.4,7.7
		l-13.4-7.7l13.4-7.7L304.6,367.3z M290.6,359.2l-13.4,7.7l-13.4-7.7l13.4-7.7L290.6,359.2z M276.6,351.1l-13.4,7.7l-13.4-7.7
		l13.4-7.7L276.6,351.1z M262.6,343l-13.4,7.7l-13.4-7.7l13.4-7.7L262.6,343z M248.5,334.9l-13.4,7.7l-13.4-7.7l13.4-7.7
		L248.5,334.9z M234.5,326.8l-13.4,7.7l-13.4-7.7l13.4-7.7L234.5,326.8z M220.5,318.8l-13.4,7.7l-13.4-7.7l13.4-7.7L220.5,318.8z
		 M206.5,310.7l-13.4,7.7l-13.4-7.7l13.4-7.7L206.5,310.7z M192.5,302.6l-13.4,7.7l-13.4-7.7l13.4-7.7L192.5,302.6z M178.5,294.5
		l-13.4,7.7l-13.4-7.7l13.4-7.7L178.5,294.5z M164.4,286.4l-13.4,7.7l-13.4-7.7l13.4-7.7L164.4,286.4z M346.7,375.4l-13.4,7.7
		l-13.4-7.7l13.4-7.7L346.7,375.4z M332.6,367.3l-13.4,7.7l-13.4-7.7l13.4-7.7L332.6,367.3z M318.6,359.2l-13.4,7.7l-13.4-7.7
		l13.4-7.7L318.6,359.2z M304.6,351.1l-13.4,7.7l-13.4-7.7l13.4-7.7L304.6,351.1z M290.6,343l-13.4,7.7l-13.4-7.7l13.4-7.7
		L290.6,343z M276.6,334.9l-13.4,7.7l-13.4-7.7l13.4-7.7L276.6,334.9z M262.6,326.8l-13.4,7.7l-13.4-7.7l13.4-7.7L262.6,326.8z
		 M248.5,318.7l-13.4,7.7l-13.4-7.7l13.4-7.7L248.5,318.7z M234.5,310.7l-13.4,7.7l-13.4-7.7l13.4-7.7L234.5,310.7z M220.5,302.6
		l-13.4,7.7l-13.4-7.7l13.4-7.7L220.5,302.6z M206.5,294.5l-13.4,7.7l-13.4-7.7l13.4-7.7L206.5,294.5z M192.5,286.4l-13.4,7.7
		l-13.4-7.7l13.4-7.7L192.5,286.4z M178.5,278.3l-13.4,7.7l-13.4-7.7l13.4-7.7L178.5,278.3z M360.7,367.3l-13.4,7.7l-13.4-7.7
		l13.4-7.7L360.7,367.3z M346.7,359.2l-13.4,7.7l-13.4-7.7l13.4-7.7L346.7,359.2z M332.7,351.1l-13.4,7.7l-13.4-7.7l13.4-7.7
		L332.7,351.1z M318.6,343l-13.4,7.7l-13.4-7.7l13.4-7.7L318.6,343z M304.6,334.9l-13.4,7.7l-13.4-7.7l13.4-7.7L304.6,334.9z
		 M290.6,326.8l-13.4,7.7l-13.4-7.7l13.4-7.7L290.6,326.8z M276.6,318.7l-13.4,7.7l-13.4-7.7l13.4-7.7L276.6,318.7z M262.6,310.7
		l-13.4,7.7l-13.4-7.7l13.4-7.7L262.6,310.7z M248.6,302.6l-13.4,7.7l-13.4-7.7l13.4-7.7L248.6,302.6z M234.5,294.5l-13.4,7.7
		l-13.4-7.7l13.4-7.7L234.5,294.5z M220.5,286.4l-13.4,7.7l-13.4-7.7l13.4-7.7L220.5,286.4z M206.5,278.3l-13.4,7.7l-13.4-7.7
		l13.4-7.7L206.5,278.3z M192.5,270.2l-13.4,7.7l-13.4-7.7l13.4-7.7L192.5,270.2z M374.7,359.2l-13.4,7.7l-13.4-7.7l13.4-7.7
		L374.7,359.2z M360.7,351.1l-13.4,7.7l-13.4-7.7l13.4-7.7L360.7,351.1z M346.7,343l-13.4,7.7l-13.4-7.7l13.4-7.7L346.7,343z
		 M332.7,334.9l-13.4,7.7l-13.4-7.7l13.4-7.7L332.7,334.9z M318.6,326.8l-13.4,7.7l-13.4-7.7l13.4-7.7L318.6,326.8z M304.6,318.7
		l-13.4,7.7l-13.4-7.7l13.4-7.7L304.6,318.7z M290.6,310.6l-13.4,7.7l-13.4-7.7l13.4-7.7L290.6,310.6z M276.6,302.6l-13.4,7.7
		l-13.4-7.7l13.4-7.7L276.6,302.6z M262.6,294.5l-13.4,7.7l-13.4-7.7l13.4-7.7L262.6,294.5z M248.6,286.4l-13.4,7.7l-13.4-7.7
		l13.4-7.7L248.6,286.4z M234.5,278.3l-13.4,7.7l-13.4-7.7l13.4-7.7L234.5,278.3z M220.5,270.2l-13.4,7.7l-13.4-7.7l13.4-7.7
		L220.5,270.2z M206.5,262.1l-13.4,7.7l-13.4-7.7l13.4-7.7L206.5,262.1z M388.7,351.1l-13.4,7.7l-13.4-7.7l13.4-7.7L388.7,351.1z
		 M374.7,343l-13.4,7.7L348,343l13.4-7.7L374.7,343z M360.7,334.9l-13.4,7.7l-13.4-7.7l13.4-7.7L360.7,334.9z M346.7,326.8
		l-13.4,7.7l-13.4-7.7l13.4-7.7L346.7,326.8z M332.7,318.7l-13.4,7.7l-13.4-7.7l13.4-7.7L332.7,318.7z M318.7,310.6l-13.4,7.7
		l-13.4-7.7l13.4-7.7L318.7,310.6z M304.6,302.5l-13.4,7.7l-13.4-7.7l13.4-7.7L304.6,302.5z M290.6,294.5l-13.4,7.7l-13.4-7.7
		l13.4-7.7L290.6,294.5z M276.6,286.4l-13.4,7.7l-13.4-7.7l13.4-7.7L276.6,286.4z M262.6,278.3l-13.4,7.7l-13.4-7.7l13.4-7.7
		L262.6,278.3z M248.6,270.2l-13.4,7.7l-13.4-7.7l13.4-7.7L248.6,270.2z M234.6,262.1l-13.4,7.7l-13.4-7.7l13.4-7.7L234.6,262.1z
		 M220.5,254l-13.4,7.7l-13.4-7.7l13.4-7.7L220.5,254z M402.8,343l-13.4,7.7L376,343l13.4-7.7L402.8,343z M388.7,334.9l-13.4,7.7
		l-13.4-7.7l13.4-7.7L388.7,334.9z M374.7,326.8l-13.4,7.7l-13.4-7.7l13.4-7.7L374.7,326.8z M360.7,318.7l-13.4,7.7l-13.4-7.7
		l13.4-7.7L360.7,318.7z M346.7,310.6l-13.4,7.7l-13.4-7.7l13.4-7.7L346.7,310.6z M332.7,302.5l-13.4,7.7l-13.4-7.7l13.4-7.7
		L332.7,302.5z M318.7,294.5l-13.4,7.7l-13.4-7.7l13.4-7.7L318.7,294.5z M304.6,286.4l-13.4,7.7l-13.4-7.7l13.4-7.7L304.6,286.4z
		 M290.6,278.3l-13.4,7.7l-13.4-7.7l13.4-7.7L290.6,278.3z M276.6,270.2l-13.4,7.7l-13.4-7.7l13.4-7.7L276.6,270.2z M262.6,262.1
		l-13.4,7.7l-13.4-7.7l13.4-7.7L262.6,262.1z M248.6,254l-13.4,7.7l-13.4-7.7l13.4-7.7L248.6,254z M234.6,245.9l-13.4,7.7l-13.4-7.7
		l13.4-7.7L234.6,245.9z M416.8,334.9l-13.4,7.7l-13.4-7.7l13.4-7.7L416.8,334.9z M402.8,326.8l-13.4,7.7l-13.4-7.7l13.4-7.7
		L402.8,326.8z M388.8,318.7l-13.4,7.7l-13.4-7.7l13.4-7.7L388.8,318.7z M374.7,310.6l-13.4,7.7l-13.4-7.7l13.4-7.7L374.7,310.6z
		 M360.7,302.5l-13.4,7.7l-13.4-7.7l13.4-7.7L360.7,302.5z M346.7,294.4l-13.4,7.7l-13.4-7.7l13.4-7.7L346.7,294.4z M332.7,286.4
		l-13.4,7.7l-13.4-7.7l13.4-7.7L332.7,286.4z M318.7,278.3l-13.4,7.7l-13.4-7.7l13.4-7.7L318.7,278.3z M304.7,270.2l-13.4,7.7
		l-13.4-7.7l13.4-7.7L304.7,270.2z M290.6,262.1l-13.4,7.7l-13.4-7.7l13.4-7.7L290.6,262.1z M276.6,254l-13.4,7.7l-13.4-7.7
		l13.4-7.7L276.6,254z M262.6,245.9l-13.4,7.7l-13.4-7.7l13.4-7.7L262.6,245.9z M248.6,237.8l-13.4,7.7l-13.4-7.7l13.4-7.7
		L248.6,237.8z M430.8,326.8l-13.4,7.7l-13.4-7.7l13.4-7.7L430.8,326.8z M416.8,318.7l-13.4,7.7l-13.4-7.7l13.4-7.7L416.8,318.7z
		 M402.8,310.6l-13.4,7.7l-13.4-7.7l13.4-7.7L402.8,310.6z M388.8,302.5l-13.4,7.7l-13.4-7.7l13.4-7.7L388.8,302.5z M374.7,294.4
		l-13.4,7.7l-13.4-7.7l13.4-7.7L374.7,294.4z M360.7,286.3l-13.4,7.7l-13.4-7.7l13.4-7.7L360.7,286.3z M346.7,278.3l-13.4,7.7
		l-13.4-7.7l13.4-7.7L346.7,278.3z M332.7,270.2l-13.4,7.7l-13.4-7.7l13.4-7.7L332.7,270.2z M318.7,262.1l-13.4,7.7l-13.4-7.7
		l13.4-7.7L318.7,262.1z M304.7,254l-13.4,7.7l-13.4-7.7l13.4-7.7L304.7,254z M290.6,245.9l-13.4,7.7l-13.4-7.7l13.4-7.7
		L290.6,245.9z M276.6,237.8l-13.4,7.7l-13.4-7.7l13.4-7.7L276.6,237.8z M262.6,229.7l-13.4,7.7l-13.4-7.7l13.4-7.7L262.6,229.7z"/>
	<g>
		<g>
			<path class="st2" d="M311.2,267.9l-2.3,1.3c-1.2,0.7-1.2,1.8,0,2.5l2.3,1.3c1.2,0.7,3.1,0.7,4.3,0l2.3-1.3c1.2-0.7,1.2-1.8,0-2.5
				l-2.3-1.3C314.3,267.2,312.4,267.2,311.2,267.9z"/>
			<path class="st2" d="M310,291.3L310,291.3c1.2,0.7,1.2,1.8,0,2.5l-1.6,0.9c-1.2,0.7-1.2,1.8,0,2.5l2.3,1.3c1.2,0.7,3.1,0.7,4.3,0
				l2.3-1.3c1.2-0.7,1.2-1.8,0-2.5l-1.8-1c-1.2-0.7-1.2-1.8,0-2.5l8.3-4.8c1.2-0.7,3.1-0.7,4.3,0l0.6,0.3c1.2,0.7,3.1,0.7,4.3,0
				l2.3-1.3c1.2-0.7,1.2-1.8,0-2.5l-2.3-1.3c-1.2-0.7-3.1-0.7-4.3,0l-1.5,0.8c-1.2,0.7-3.1,0.7-4.3,0l-8.1-4.7
				c-1.2-0.7-3.1-0.7-4.3,0l-3.2,1.8c-1.2,0.7-3.1,0.7-4.3,0l-2.1-1.2c-1.2-0.7-3.1-0.7-4.3,0l-2.3,1.3c-1.2,0.7-1.2,1.8,0,2.5
				l2.1,1.2c1.2,0.7,1.2,1.8,0,2.5l-3.3,1.9c-1.2,0.7-1.2,1.8,0,2.5l4.9,2.8c1.2,0.7,3.1,0.7,4.3,0l3.3-1.9
				C306.9,290.6,308.8,290.6,310,291.3z"/>
		</g>
		<g>
			<path class="st2" d="M167.8,378.2l2.5-1.5c1.3-0.8,1.3-2,0-2.7l-2.5-1.5c-1.3-0.8-3.4-0.8-4.8,0l-2.5,1.5c-1.3,0.8-1.3,2,0,2.7
				l2.5,1.5C164.3,378.9,166.5,378.9,167.8,378.2z"/>
			<path class="st2" d="M169.1,352.6L169.1,352.6c-1.3-0.8-1.3-2,0-2.7l1.8-1c1.3-0.8,1.3-2,0-2.7l-2.5-1.5c-1.3-0.8-3.4-0.8-4.8,0
				l-2.5,1.5c-1.3,0.8-1.3,2,0,2.7l1.9,1.1c1.3,0.8,1.3,2,0,2.7l-9.1,5.2c-1.3,0.8-3.4,0.8-4.8,0l-0.6-0.4c-1.3-0.8-3.4-0.8-4.8,0
				l-2.5,1.5c-1.3,0.8-1.3,2,0,2.7l2.5,1.5c1.3,0.8,3.4,0.8,4.8,0l1.6-0.9c1.3-0.8,3.4-0.8,4.8,0l8.8,5.1c1.3,0.8,3.4,0.8,4.8,0
				l3.4-2c1.3-0.8,3.4-0.8,4.8,0l2.3,1.4c1.3,0.8,3.4,0.8,4.8,0l2.5-1.5c1.3-0.8,1.3-2,0-2.7l-2.3-1.4c-1.3-0.8-1.3-2,0-2.7l3.6-2.1
				c1.3-0.8,1.3-2,0-2.7l-5.4-3.1c-1.3-0.8-3.4-0.8-4.8,0l-3.6,2.1C172.5,353.4,170.4,353.4,169.1,352.6z"/>
		</g>
	</g>
	<g>
		<g>
			<path class="st3" d="M175.2,233c-2.6,1.5-4.7,5.1-4.7,8.1s2.1,4.2,4.7,2.7c2.6-1.5,4.7-5.1,4.7-8.1S177.8,231.5,175.2,233z
				 M175.2,241.9c-1.7,1-3.1,0.2-3.1-1.8c0-1.9,1.4-4.3,3.1-5.3c1.7-1,3.1-0.2,3.1,1.8C178.3,238.5,176.9,240.9,175.2,241.9z"/>
			<path class="st4" d="M173.3,253c0,1.6-1.1,3.6-2.5,4.4s-2.5,0.2-2.5-1.5c0-1.6,1.1-3.6,2.5-4.4
				C172.2,250.7,173.3,251.4,173.3,253z"/>
			<path class="st4" d="M175.9,223c0,1.6-1.1,3.6-2.5,4.4c-1.4,0.8-2.5,0.2-2.5-1.5c0-1.6,1.1-3.6,2.5-4.4
				C174.8,220.7,175.9,221.4,175.9,223z"/>
			<rect x="159.9" y="245.3" transform="matrix(0.5 -0.866 0.866 0.5 -132.4433 265.3601)" class="st5" width="7.3" height="4.2"/>
			<path class="st6" d="M165,232l-2.1,1.2v-2.4c0-0.5-0.3-0.6-0.7-0.4c-0.4,0.2-0.7,0.8-0.7,1.2v2.4l-2.1,1.2
				c-0.4,0.2-0.7,0.8-0.7,1.2s0.3,0.6,0.7,0.4l2.1-1.2v2.4c0,0.4,0.3,0.6,0.7,0.4c0.4-0.2,0.7-0.8,0.7-1.2v-2.4l2.1-1.2
				c0.4-0.2,0.7-0.8,0.7-1.2S165.4,231.8,165,232z"/>
		</g>
		<g>
			<path class="st2" d="M281.5,189.2c-2.6,1.5-4.7,5.1-4.7,8.1s2.1,4.2,4.7,2.7s4.7-5.1,4.7-8.1C286.1,188.9,284,187.7,281.5,189.2z
				 M281.5,198.1c-1.7,1-3.1,0.2-3.1-1.8c0-1.9,1.4-4.3,3.1-5.3s3.1-0.2,3.1,1.8C284.5,194.7,283.2,197.1,281.5,198.1z"/>
			<path class="st3" d="M278.1,206.2c0,1.6-1.1,3.6-2.5,4.4c-1.4,0.8-2.5,0.2-2.5-1.5c0-1.6,1.1-3.6,2.5-4.4
				C276.9,203.9,278.1,204.6,278.1,206.2z"/>
			<path class="st4" d="M281.9,178.9c0,1.6-1.1,3.6-2.5,4.4c-1.4,0.8-2.5,0.2-2.5-1.5c0-1.6,1.1-3.6,2.5-4.4
				C280.7,176.6,281.9,177.3,281.9,178.9z"/>
			<rect x="264.7" y="198.5" transform="matrix(0.5 -0.866 0.866 0.5 -39.5269 332.6875)" class="st5" width="7.3" height="4.2"/>
			<path class="st6" d="M273.3,185.1l-2.1,1.2v-2.4c0-0.4-0.3-0.6-0.7-0.4c-0.4,0.2-0.7,0.8-0.7,1.2v2.4l-2.1,1.2
				c-0.4,0.2-0.7,0.8-0.7,1.2s0.3,0.6,0.7,0.4l2.1-1.2v2.4c0,0.4,0.3,0.6,0.7,0.4c0.4-0.2,0.7-0.8,0.7-1.2v-2.4l2.1-1.2
				c0.4-0.2,0.7-0.8,0.7-1.2S273.7,184.9,273.3,185.1z"/>
		</g>
	</g>
	<g>
		
			<radialGradient id="SVGID_00000104679847133466024330000018372265415201074825_" cx="90.3009" cy="437.8916" r="131.3827" gradientTransform="matrix(1 0 0 -1 0 502)" gradientUnits="userSpaceOnUse">
			<stop  offset="0" style="stop-color:#E4F2FF"/>
			<stop  offset="4.527184e-02" style="stop-color:#E1EFFF"/>
			<stop  offset="0.528" style="stop-color:#C7D7FB"/>
			<stop  offset="0.8145" style="stop-color:#BDCEFA"/>
			<stop  offset="0.8552" style="stop-color:#C4D3FB"/>
			<stop  offset="0.9145" style="stop-color:#D8E2FC"/>
			<stop  offset="0.985" style="stop-color:#F7F9FE"/>
			<stop  offset="1" style="stop-color:#FFFFFF"/>
		</radialGradient>
		<circle style="fill:url(#SVGID_00000104679847133466024330000018372265415201074825_);" cx="114.9" cy="104.6" r="76.6"/>
		
			<radialGradient id="SVGID_00000121267492455883584980000011134585128474680977_" cx="418.8465" cy="64.3486" r="71.9704" gradientTransform="matrix(1 0 0 -1 0 502)" gradientUnits="userSpaceOnUse">
			<stop  offset="0" style="stop-color:#E4F2FF"/>
			<stop  offset="4.527184e-02" style="stop-color:#E1EFFF"/>
			<stop  offset="0.528" style="stop-color:#C7D7FB"/>
			<stop  offset="0.8145" style="stop-color:#BDCEFA"/>
			<stop  offset="0.8552" style="stop-color:#C4D3FB"/>
			<stop  offset="0.9145" style="stop-color:#D8E2FC"/>
			<stop  offset="0.985" style="stop-color:#F7F9FE"/>
			<stop  offset="1" style="stop-color:#FFFFFF"/>
		</radialGradient>
		<circle style="fill:url(#SVGID_00000121267492455883584980000011134585128474680977_);" cx="398.2" cy="411.5" r="39.4"/>
		
			<radialGradient id="SVGID_00000106827265600313433670000004017600740669267118_" cx="432.3704" cy="395.3807" r="87.7002" gradientTransform="matrix(1 0 0 -1 0 502)" gradientUnits="userSpaceOnUse">
			<stop  offset="0" style="stop-color:#E4F2FF"/>
			<stop  offset="4.527184e-02" style="stop-color:#E1EFFF"/>
			<stop  offset="0.5243" style="stop-color:#C7D7FB"/>
			<stop  offset="0.8145" style="stop-color:#BDCEFA"/>
			<stop  offset="0.8552" style="stop-color:#C4D3FB"/>
			<stop  offset="0.9145" style="stop-color:#D8E2FC"/>
			<stop  offset="0.985" style="stop-color:#F7F9FE"/>
			<stop  offset="1" style="stop-color:#FFFFFF"/>
		</radialGradient>
		<circle style="fill:url(#SVGID_00000106827265600313433670000004017600740669267118_);" cx="406.4" cy="139.9" r="44.8"/>
		
			<radialGradient id="SVGID_00000042714644906255285060000001250384616335954063_" cx="129.4316" cy="81.8556" r="22.0313" gradientTransform="matrix(1 0 0 -1 0 502)" gradientUnits="userSpaceOnUse">
			<stop  offset="0" style="stop-color:#E4F2FF"/>
			<stop  offset="4.527184e-02" style="stop-color:#E1EFFF"/>
			<stop  offset="0.528" style="stop-color:#C7D7FB"/>
			<stop  offset="0.8145" style="stop-color:#BDCEFA"/>
			<stop  offset="0.8552" style="stop-color:#C4D3FB"/>
			<stop  offset="0.9145" style="stop-color:#D8E2FC"/>
			<stop  offset="0.985" style="stop-color:#F7F9FE"/>
			<stop  offset="1" style="stop-color:#FFFFFF"/>
		</radialGradient>
		<circle style="fill:url(#SVGID_00000042714644906255285060000001250384616335954063_);" cx="122.6" cy="426.2" r="13.4"/>
		
			<radialGradient id="SVGID_00000119798604100560968060000002346986433657683332_" cx="200.4514" cy="359.1811" r="12.9088" gradientTransform="matrix(1 0 0 -1 0 502)" gradientUnits="userSpaceOnUse">
			<stop  offset="0" style="stop-color:#E4F2FF"/>
			<stop  offset="4.527184e-02" style="stop-color:#E1EFFF"/>
			<stop  offset="0.528" style="stop-color:#C7D7FB"/>
			<stop  offset="0.8145" style="stop-color:#BDCEFA"/>
			<stop  offset="0.8552" style="stop-color:#C4D3FB"/>
			<stop  offset="0.9145" style="stop-color:#D8E2FC"/>
			<stop  offset="0.985" style="stop-color:#F7F9FE"/>
			<stop  offset="1" style="stop-color:#FFFFFF"/>
		</radialGradient>
		<circle style="fill:url(#SVGID_00000119798604100560968060000002346986433657683332_);" cx="197.6" cy="146.4" r="8.5"/>
	</g>
	<g>
		
			<linearGradient id="SVGID_00000140721022961052538280000005453093017870507918_" gradientUnits="userSpaceOnUse" x1="252.9138" y1="221.1661" x2="405.8754" y2="312.8535" gradientTransform="matrix(1 0 0 -1 0 502)">
			<stop  offset="0" style="stop-color:#E4F2FF;stop-opacity:0"/>
			<stop  offset="5.554383e-02" style="stop-color:#E1EFFF;stop-opacity:5.558312e-02"/>
			<stop  offset="0.6478" style="stop-color:#C7D7FB;stop-opacity:0.6483"/>
			<stop  offset="0.9993" style="stop-color:#BDCEFA"/>
		</linearGradient>
		<path style="fill:url(#SVGID_00000140721022961052538280000005453093017870507918_);" d="M387,290l-80.3-46.4
			c-3-1.7-4.8-4.9-4.8-8.3v-73.7c0-7.4,8-12,14.4-8.3l80.3,46.4c3,1.7,4.8,4.9,4.8,8.3v73.7C401.4,289.1,393.4,293.7,387,290z"/>
		<g>
			
				<linearGradient id="SVGID_00000052089506572114364620000000642619163588089240_" gradientUnits="userSpaceOnUse" x1="437.6341" y1="324.8076" x2="202.2958" y2="203.1272" gradientTransform="matrix(1 0 0 -1 0 502)">
				<stop  offset="0" style="stop-color:#FFFFFF"/>
				<stop  offset="0.3656" style="stop-color:#E1E9FD;stop-opacity:0.6341"/>
				<stop  offset="0.7632" style="stop-color:#C7D5FB;stop-opacity:0.2363"/>
				<stop  offset="0.9993" style="stop-color:#BDCEFA;stop-opacity:0"/>
			</linearGradient>
			<path style="fill:url(#SVGID_00000052089506572114364620000000642619163588089240_);" d="M391.8,288.1c-1.1,0-2.2-0.3-3.2-0.9
				l-80.3-46.4c-2-1.1-3.2-3.2-3.2-5.5v-73.7c0-3.9,3.3-6.4,6.4-6.4c1.1,0,2.2,0.3,3.2,0.9l80.3,46.4c2,1.1,3.2,3.2,3.2,5.5v73.7
				C398.2,285.6,394.9,288.1,391.8,288.1z M311.5,155.8c-2.8,0-5.8,2.2-5.8,5.8v73.7c0,2,1.1,4,2.9,5l80.3,46.4
				c0.9,0.5,1.9,0.8,2.9,0.8c2.8,0,5.8-2.2,5.8-5.8V208c0-2-1.1-4-2.9-5l-80.3-46.4C313.5,156.1,312.5,155.8,311.5,155.8z"/>
			<g>
				
					<linearGradient id="SVGID_00000159469701709581621460000002515304386857513639_" gradientUnits="userSpaceOnUse" x1="427.0997" y1="345.1819" x2="191.7613" y2="223.5013" gradientTransform="matrix(1 0 0 -1 0 502)">
					<stop  offset="0" style="stop-color:#FFFFFF"/>
					<stop  offset="0.3656" style="stop-color:#E1E9FD;stop-opacity:0.6341"/>
					<stop  offset="0.7632" style="stop-color:#C7D5FB;stop-opacity:0.2363"/>
					<stop  offset="0.9993" style="stop-color:#BDCEFA;stop-opacity:0"/>
				</linearGradient>
				<path style="fill:url(#SVGID_00000159469701709581621460000002515304386857513639_);" d="M388,218.7l-69.3-40
					c-1.5-0.9-2.8-3.3-2.8-5.4l0,0c0-2.1,1.3-3,2.8-2.1l69.3,40c1.5,0.9,2.8,3.3,2.8,5.4l0,0C390.8,218.7,389.5,219.6,388,218.7z"/>
				
					<linearGradient id="SVGID_00000109026233587740530010000003928377109829427881_" gradientUnits="userSpaceOnUse" x1="427.6801" y1="344.0592" x2="192.3418" y2="222.3788" gradientTransform="matrix(1 0 0 -1 0 502)">
					<stop  offset="0" style="stop-color:#FFFFFF"/>
					<stop  offset="0.3656" style="stop-color:#E1E9FD;stop-opacity:0.6341"/>
					<stop  offset="0.7632" style="stop-color:#C7D5FB;stop-opacity:0.2363"/>
					<stop  offset="0.9993" style="stop-color:#BDCEFA;stop-opacity:0"/>
				</linearGradient>
				<path style="fill:url(#SVGID_00000109026233587740530010000003928377109829427881_);" d="M341.7,230.4l-22-12.7
					c-1.5-0.9-2.8-3.3-2.8-5.4v-24.4c0-2.1,1.3-3,2.8-2.1l22,12.7c1.5,0.9,2.8,3.3,2.8,5.4v24.4
					C344.5,230.3,343.2,231.3,341.7,230.4z"/>
				
					<linearGradient id="SVGID_00000065767692618057837090000006935600411829315725_" gradientUnits="userSpaceOnUse" x1="446.1471" y1="308.3427" x2="210.8088" y2="186.6622" gradientTransform="matrix(1 0 0 -1 0 502)">
					<stop  offset="0" style="stop-color:#FFFFFF"/>
					<stop  offset="0.3656" style="stop-color:#E1E9FD;stop-opacity:0.6341"/>
					<stop  offset="0.7632" style="stop-color:#C7D5FB;stop-opacity:0.2363"/>
					<stop  offset="0.9993" style="stop-color:#BDCEFA;stop-opacity:0"/>
				</linearGradient>
				<path style="fill:url(#SVGID_00000065767692618057837090000006935600411829315725_);" d="M383,254.3l-22-12.7
					c-1.5-0.9-2.8-3.3-2.8-5.4v-24.4c0-2.1,1.3-3,2.8-2.1l22,12.7c1.5,0.9,2.8,3.3,2.8,5.4v24.4C385.8,254.2,384.6,255.2,383,254.3z
					"/>
				<g>
					
						<linearGradient id="SVGID_00000057832054205607843230000012117707527095641732_" gradientUnits="userSpaceOnUse" x1="447.3563" y1="306.0046" x2="212.018" y2="184.3241" gradientTransform="matrix(1 0 0 -1 0 502)">
						<stop  offset="0" style="stop-color:#FFFFFF"/>
						<stop  offset="0.3656" style="stop-color:#E1E9FD;stop-opacity:0.6341"/>
						<stop  offset="0.7632" style="stop-color:#C7D5FB;stop-opacity:0.2363"/>
						<stop  offset="0.9993" style="stop-color:#BDCEFA;stop-opacity:0"/>
					</linearGradient>
					<path style="fill:url(#SVGID_00000057832054205607843230000012117707527095641732_);" d="M387,267.3l-71.4-41.2
						c-0.4-0.3-0.8-0.9-0.8-1.5l0,0c0-0.6,0.4-0.9,0.8-0.6l71.4,41.2c0.4,0.3,0.8,0.9,0.8,1.5l0,0
						C387.8,267.3,387.5,267.6,387,267.3z"/>
					
						<linearGradient id="SVGID_00000039824939540884703630000010714465856635543987_" gradientUnits="userSpaceOnUse" x1="449.0289" y1="302.7694" x2="213.6906" y2="181.0889" gradientTransform="matrix(1 0 0 -1 0 502)">
						<stop  offset="0" style="stop-color:#FFFFFF"/>
						<stop  offset="0.3656" style="stop-color:#E1E9FD;stop-opacity:0.6341"/>
						<stop  offset="0.7632" style="stop-color:#C7D5FB;stop-opacity:0.2363"/>
						<stop  offset="0.9993" style="stop-color:#BDCEFA;stop-opacity:0"/>
					</linearGradient>
					<path style="fill:url(#SVGID_00000039824939540884703630000010714465856635543987_);" d="M387,271.4l-71.4-41.2
						c-0.4-0.3-0.8-0.9-0.8-1.5l0,0c0-0.6,0.4-0.9,0.8-0.6l71.4,41.2c0.4,0.3,0.8,0.9,0.8,1.5l0,0
						C387.8,271.4,387.5,271.7,387,271.4z"/>
					
						<linearGradient id="SVGID_00000172407925416877163750000016029387157654570674_" gradientUnits="userSpaceOnUse" x1="450.6929" y1="299.5506" x2="215.3546" y2="177.8701" gradientTransform="matrix(1 0 0 -1 0 502)">
						<stop  offset="0" style="stop-color:#FFFFFF"/>
						<stop  offset="0.3656" style="stop-color:#E1E9FD;stop-opacity:0.6341"/>
						<stop  offset="0.7632" style="stop-color:#C7D5FB;stop-opacity:0.2363"/>
						<stop  offset="0.9993" style="stop-color:#BDCEFA;stop-opacity:0"/>
					</linearGradient>
					<path style="fill:url(#SVGID_00000172407925416877163750000016029387157654570674_);" d="M387,275.5l-71.4-41.2
						c-0.4-0.3-0.8-0.9-0.8-1.5l0,0c0-0.6,0.4-0.9,0.8-0.6l71.4,41.2c0.4,0.3,0.8,0.9,0.8,1.5l0,0
						C387.8,275.5,387.5,275.7,387,275.5z"/>
				</g>
			</g>
		</g>
	</g>
	<g>
		<g>
			<g>
				
					<linearGradient id="SVGID_00000162341956576501374810000001866281083148425150_" gradientUnits="userSpaceOnUse" x1="264.6922" y1="344.0501" x2="186.857" y2="147.1508" gradientTransform="matrix(1 0 0 -1 0 502)">
					<stop  offset="0" style="stop-color:#C3E0FE"/>
					<stop  offset="5.553947e-02" style="stop-color:#C1DDFC"/>
					<stop  offset="0.6478" style="stop-color:#ABC3EE"/>
					<stop  offset="0.9993" style="stop-color:#A3B9E8"/>
				</linearGradient>
				<path style="fill:url(#SVGID_00000162341956576501374810000001866281083148425150_);" d="M190.6,346.5V205.4
					c0-3.9,2.4-8.4,5.3-10.1l60.5-34.9c2.9-1.7,5.3,0.1,5.3,4v141.1c0,3.9-2.4,8.4-5.3,10.1l-60.5,34.9
					C193,352.2,190.6,350.4,190.6,346.5z"/>
				<g>
					<path class="st21" d="M259.9,160.1L259.9,160.1l-0.1-0.1C259.8,160.1,259.8,160.1,259.9,160.1z"/>
					<path class="st21" d="M192.1,350.6c-0.9-0.7-1.4-2.1-1.4-4V205.4c0-3.9,2.4-8.4,5.3-10.1l60.5-34.9c1.3-0.7,2.5-0.8,3.4-0.3
						l-3.2-1.8c-1-0.8-2.3-0.8-3.8,0.1l-60.5,34.9c-2.9,1.7-5.3,6.2-5.3,10.1v141.1c0,2.3,0.9,3.9,2.2,4.4l0,0L192.1,350.6z"/>
					<path class="st21" d="M192.9,351L192.9,351L192.9,351z"/>
				</g>
				
					<linearGradient id="SVGID_00000152228256102353598400000001412259172162085049_" gradientUnits="userSpaceOnUse" x1="245.2426" y1="372.1211" x2="171.2608" y2="169.4414" gradientTransform="matrix(1 0 0 -1 0 502)">
					<stop  offset="0" style="stop-color:#BEDAFF"/>
					<stop  offset="1" style="stop-color:#FFFFFF;stop-opacity:0"/>
				</linearGradient>
				<path style="fill:url(#SVGID_00000152228256102353598400000001412259172162085049_);" d="M192.9,351L192.9,351L192.9,351
					L192.9,351z M255.9,160.2l-60.5,34.9c-2.9,1.7-5.3,6.2-5.3,10.1v141.1c0,1.7,0.4,2.9,1.1,3.7l0.8,0.5c-0.9-0.7-1.4-2.1-1.4-4
					V205.4c0-3.9,2.4-8.4,5.3-10.1l60.5-34.9c1-0.6,1.9-0.7,2.7-0.6C258.2,159.4,257.1,159.5,255.9,160.2z M259.8,160.1
					c0,0,0.1,0,0.1,0.1l0,0L259.8,160.1z"/>
				
					<linearGradient id="SVGID_00000047769019986694433320000007858304126572798646_" gradientUnits="userSpaceOnUse" x1="265.9854" y1="351.7993" x2="142.6054" y2="24.9957" gradientTransform="matrix(1 0 0 -1 0 502)">
					<stop  offset="0" style="stop-color:#E4F2FF"/>
					<stop  offset="5.554383e-02" style="stop-color:#E1EFFF"/>
					<stop  offset="0.6478" style="stop-color:#C7D7FB"/>
					<stop  offset="0.9993" style="stop-color:#BDCEFA"/>
				</linearGradient>
				<path style="fill:url(#SVGID_00000047769019986694433320000007858304126572798646_);" d="M256,163.3l-10.4,6l-1.6,3.9
					c-0.8,1.9-2.1,3.6-3.6,4.5L212,194.1c-1.5,0.9-2.9,0.8-3.6-0.3l-1.6-2.1l-10.4,6c-1.9,1.1-3.4,3.7-3.4,5.9v142.1
					c0,2.2,1.5,3,3.4,2l59.7-34.5c1.9-1.1,3.4-3.7,3.4-5.9v-142C259.4,163.1,257.9,162.2,256,163.3z"/>
				<path class="st24" d="M235.4,177.7l-18.5,10.7c-0.3,0.2-0.6,0-0.6-0.5l0,0c0-0.4,0.3-1,0.6-1.1l18.5-10.7c0.3-0.2,0.6,0,0.6,0.5
					l0,0C236,177,235.7,177.5,235.4,177.7z"/>
				<path class="st25" d="M189.1,242.5L189.1,242.5c-0.4-0.2-0.7-0.8-0.7-1.2v-12.9c0-0.4,0.3-0.7,0.6-0.5l0.1,0.1
					c0.3,0.2,0.6,0.7,0.6,1.2v12.9C189.7,242.5,189.4,242.7,189.1,242.5z"/>
				<path class="st26" d="M188.4,242.5L188.4,242.5c-0.4-0.2-0.7-0.8-0.7-1.2v-12.9c0-0.4,0.3-0.7,0.6-0.5l0.1,0.1
					c0.3,0.2,0.6,0.7,0.6,1.2v12.9C189,242.5,188.8,242.7,188.4,242.5z"/>
				<g>
					<path class="st26" d="M248.6,162.4c0.6,0.3,0.6,0.9,0,1.2s-1.5,0.3-2.1,0s-0.6-0.9,0-1.2C247.1,162.1,248.1,162.1,248.6,162.4z
						"/>
					<path class="st25" d="M248.6,162.4c-0.6-0.3-1.5-0.3-2.1,0c-0.2,0.1-0.3,0.2-0.3,0.3l0.1-0.1c0.6-0.3,1.5-0.3,2.1,0
						c0.4,0.2,0.5,0.6,0.3,0.9C249.2,163.2,249.2,162.7,248.6,162.4z"/>
				</g>
				<g class="st27">
					<polygon class="st28" points="259.4,232.5 259.4,185.1 192.9,251.5 192.9,298.9 					"/>
					<path class="st28" d="M192.9,237.6l66.4-66.4v-5.9c0-2.2-1.5-3-3.4-2l-5.3,3.1l-6.5,6.5l-0.1,0.3c-0.8,1.9-2.1,3.6-3.6,4.5
						l-2.5,1.4l-45,45L192.9,237.6L192.9,237.6z"/>
					<polygon class="st28" points="259.4,270.3 259.4,243.1 192.9,309.5 192.9,336.7 					"/>
					<polygon class="st28" points="259.4,294.8 259.4,288.5 205.7,342.3 220.4,333.8 					"/>
				</g>
				
					<linearGradient id="SVGID_00000182518276120845694680000005459504306248245379_" gradientUnits="userSpaceOnUse" x1="223.959" y1="328.1048" x2="266.9785" y2="193.1601" gradientTransform="matrix(1 0 0 -1 0 502)">
					<stop  offset="0" style="stop-color:#53F0E7"/>
					<stop  offset="1" style="stop-color:#FFFFFF;stop-opacity:0"/>
				</linearGradient>
				<path style="display:none;fill:url(#SVGID_00000182518276120845694680000005459504306248245379_);" d="M259.4,165.3
					c0-2.2-1.5-3-3.4-2l-10.4,6l-1.6,3.9c-0.8,1.9-2.1,3.6-3.6,4.5L212,194.1c-1.5,0.9-2.9,0.8-3.6-0.3l-1.6-2.1l-10.4,6
					c-1,0.6-1.8,1.5-2.4,2.6l0,0l63.9,111.3l0,0c1-1.2,1.6-2.9,1.6-4.3v-142H259.4z"/>
				
					<linearGradient id="SVGID_00000132050602959540740580000011919364056869692292_" gradientUnits="userSpaceOnUse" x1="226.75" y1="339.1695" x2="226.75" y2="178.4668" gradientTransform="matrix(1 0 0 -1 0 502)">
					<stop  offset="6.674000e-04" style="stop-color:#A9BDEA"/>
					<stop  offset="1" style="stop-color:#FFFFFF;stop-opacity:0"/>
				</linearGradient>
				<path style="fill:url(#SVGID_00000132050602959540740580000011919364056869692292_);" d="M240.4,177.7L212,194.1
					c-1.5,0.9-2.9,0.8-3.6-0.3l-1.6-2.1l-10.4,6c-1,0.6-1.8,1.5-2.4,2.6c0.5-0.7,1.1-1.2,1.8-1.6l10.4-6l1.6,2.1
					c0.8,1,2.1,1.1,3.6,0.3l28.4-16.4c1.1-0.7,2.2-1.8,3-3.1C242,176.5,241.2,177.2,240.4,177.7z M256,163.3l-10.4,6l-0.3,0.8
					l10.1-5.8c1.9-1.1,3.4-0.2,3.4,2v142.1c0,1.1-0.4,2.2-0.9,3.3c1-1.2,1.6-2.9,1.6-4.3V165.3C259.4,163.1,257.9,162.2,256,163.3z"
					/>
			</g>
		</g>
		<g>
			<g>
				<path class="st6" d="M217.4,244.1l-18.3,10.6c-1.3,0.7-2.3,0-2.3-1.8l0,0c0-1.7,1-3.7,2.3-4.4l18.3-10.6c1.3-0.7,2.3,0,2.3,1.8
					l0,0C219.7,241.3,218.7,243.3,217.4,244.1z"/>
				<path class="st6" d="M223.9,248.9L199,263.3c-1.3,0.7-2.3,0-2.3-1.8l0,0c0-1.7,1-3.7,2.3-4.4l24.9-14.4c1.3-0.7,2.3,0,2.3,1.8
					l0,0C226.2,246.2,225.2,248.1,223.9,248.9z"/>
				<path class="st6" d="M213,263.8l-13.9,8.1c-1.3,0.7-2.3,0-2.3-1.8l0,0c0-1.7,1-3.7,2.3-4.4l13.9-8.1c1.3-0.7,2.3,0,2.3,1.8l0,0
					C215.3,261.1,214.3,263,213,263.8z"/>
			</g>
			
				<linearGradient id="SVGID_00000068643596030346618200000008923114193505564824_" gradientUnits="userSpaceOnUse" x1="199.1086" y1="219.7619" x2="264.1579" y2="172.024" gradientTransform="matrix(1 0 0 -1 0 502)">
				<stop  offset="0" style="stop-color:#00E9FF"/>
				<stop  offset="0.1813" style="stop-color:#01D1FF"/>
				<stop  offset="0.5456" style="stop-color:#02A6FF"/>
				<stop  offset="0.8306" style="stop-color:#038CFF"/>
				<stop  offset="0.9993" style="stop-color:#0382FF"/>
			</linearGradient>
			<path style="fill:url(#SVGID_00000068643596030346618200000008923114193505564824_);" d="M252.9,306.6l-52.5,30.3
				c-2,1.2-3.7-0.1-3.7-2.8v-28.7c0-2.7,1.7-5.9,3.7-7.1l52.5-30.3c2-1.2,3.7,0.1,3.7,2.8v28.7C256.6,302.2,255,305.4,252.9,306.6z"
				/>
			<g>
				<path class="st5" d="M256.7,185.1v-2.6c0-2.3-1.6-3.2-3.5-2l-53,30.6c-1.9,1.1-3.5,3.9-3.5,6.1v2.6L256.7,185.1z"/>
				<g>
					<path class="st3" d="M202.9,212.8c0,0.9-0.6,2-1.4,2.5c-0.8,0.5-1.4,0.1-1.4-0.8s0.6-2,1.4-2.5
						C202.3,211.6,202.9,211.9,202.9,212.8z"/>
					<path class="st3" d="M207.9,210c0,0.9-0.6,2-1.4,2.5c-0.8,0.5-1.4,0.1-1.4-0.8s0.6-2,1.4-2.5C207.3,208.7,207.9,209,207.9,210z
						"/>
					<path class="st3" d="M212.9,207.1c0,0.9-0.6,2-1.4,2.5c-0.8,0.5-1.4,0.1-1.4-0.8s0.6-2,1.4-2.5S212.9,206.2,212.9,207.1z"/>
				</g>
			</g>
			<g>
				<path class="st28" d="M206,230.3l4.9,6.2c-4,5.2-9.2,7.2-12.2,4.7c-1.2-1-2-2.8-2.1-5L206,230.3z"/>
				<path class="st3" d="M206,230.3l-9.3,5.9c-0.2-3.3,1.1-7.4,3.4-10.9c2.2-3.4,5.2-5.8,7.9-6.7L206,230.3z"/>
				<g>
					<path class="st32" d="M210.9,233.2l2.1-11.7c2-0.6,3.8-0.4,5.1,0.7c3.2,2.7,2.6,9.9-1.4,15.9c-0.3,0.4-0.6,0.9-0.9,1.3
						L210.9,233.2z"/>
					<g>
						<polygon class="st33" points="213,221.6 208.1,218.7 206,230.3 210.9,233.2 						"/>
						<path class="st33" d="M217.6,221.9L217.6,221.9L217.6,221.9z"/>
						<path class="st33" d="M217.6,221.9l-4.9-2.9c-1.2-0.8-2.9-0.9-4.6-0.4l4.9,2.9C214.8,221,216.4,221.1,217.6,221.9z"/>
						<polygon class="st33" points="210.9,236.6 215.9,239.5 210.9,233.2 206,230.3 						"/>
					</g>
				</g>
			</g>
			<g>
				<polygon class="st6" points="256.7,261.9 197.1,296.3 197.1,295 256.7,260.6 				"/>
				<polygon class="st6" points="256.7,245 197.1,279.4 197.1,278 256.7,243.6 				"/>
				<g>
					<path class="st2" d="M232.1,271.6l-10.8,6.2c-0.9,0.5-1.6,0-1.6-1.2v-4.5c0-1.2,0.7-2.5,1.6-3l10.8-6.2c0.9-0.5,1.6,0,1.6,1.2
						v4.5C233.6,269.7,232.9,271.1,232.1,271.6z"/>
					<path class="st2" d="M251.9,260.1l-10.8,6.2c-0.9,0.5-1.6,0-1.6-1.2v-4.5c0-1.2,0.7-2.5,1.6-3l10.8-6.2c0.9-0.5,1.6,0,1.6,1.2
						v4.5C253.5,258.2,252.8,259.6,251.9,260.1z"/>
					<path class="st34" d="M205.6,293.1c0.3,0.2,0.7,0.2,1.1,0l10.8-6.2c0.9-0.5,1.6-1.9,1.6-3v-4.5c0-0.6-0.2-1-0.5-1.2l-5.3-3.8
						c-0.3-0.2-0.7-0.2-1.1,0l-10.8,6.2c-0.9,0.5-1.6,1.9-1.6,3v4.5c0,0.6,0.2,1,0.5,1.2L205.6,293.1z"/>
					<path class="st2" d="M217.5,286.8l-10.8,6.2c-0.9,0.5-1.6,0-1.6-1.2v-4.5c0-1.2,0.7-2.5,1.6-3l10.8-6.2c0.9-0.5,1.6,0,1.6,1.2
						v4.5C219.1,285,218.4,286.3,217.5,286.8z"/>
				</g>
			</g>
			<g>
				<g>
					<path class="st6" d="M254.6,209l-30.5,17.6c-1.1,0.7-2.1,0-2.1-1.6v-7.9c0-1.5,0.9-3.3,2.1-3.9l30.5-17.6
						c1.1-0.7,2.1,0,2.1,1.6v7.9C256.6,206.5,255.7,208.3,254.6,209z"/>
					<g>
						
							<linearGradient id="SVGID_00000061464436516186587960000017907558460020215986_" gradientUnits="userSpaceOnUse" x1="239.7719" y1="292.4796" x2="212.5295" y2="266.0269" gradientTransform="matrix(1 0 0 -1 0 502)">
							<stop  offset="0" style="stop-color:#FFFFFF"/>
							<stop  offset="0.3656" style="stop-color:#E1E9FD;stop-opacity:0.6341"/>
							<stop  offset="0.7632" style="stop-color:#C7D5FB;stop-opacity:0.2363"/>
							<stop  offset="0.9993" style="stop-color:#BDCEFA;stop-opacity:0"/>
						</linearGradient>
						<path style="fill:url(#SVGID_00000061464436516186587960000017907558460020215986_);" d="M235.6,216.5l-11.5,6.7
							c-0.3,0.2-0.5,0-0.5-0.4l0,0c0-0.4,0.2-0.8,0.5-1l11.5-6.7c0.3-0.2,0.5,0,0.5,0.4l0,0C236.1,216,235.8,216.4,235.6,216.5z"/>
						
							<linearGradient id="SVGID_00000176021075588433019520000018445183345355881367_" gradientUnits="userSpaceOnUse" x1="238.7725" y1="293.5089" x2="211.5301" y2="267.056" gradientTransform="matrix(1 0 0 -1 0 502)">
							<stop  offset="0" style="stop-color:#FFFFFF"/>
							<stop  offset="0.3656" style="stop-color:#E1E9FD;stop-opacity:0.6341"/>
							<stop  offset="0.7632" style="stop-color:#C7D5FB;stop-opacity:0.2363"/>
							<stop  offset="0.9993" style="stop-color:#BDCEFA;stop-opacity:0"/>
						</linearGradient>
						<path style="fill:url(#SVGID_00000176021075588433019520000018445183345355881367_);" d="M238.8,212.1l-14.8,8.5
							c-0.3,0.2-0.5,0-0.5-0.4l0,0c0-0.4,0.2-0.8,0.5-1l14.8-8.5c0.3-0.2,0.5,0,0.5,0.4l0,0C239.3,211.5,239.1,211.9,238.8,212.1z"
							/>
						
							<linearGradient id="SVGID_00000077286153180745370070000001667233532758982536_" gradientUnits="userSpaceOnUse" x1="237.4608" y1="294.8597" x2="210.2184" y2="268.4069" gradientTransform="matrix(1 0 0 -1 0 502)">
							<stop  offset="0" style="stop-color:#FFFFFF"/>
							<stop  offset="0.3656" style="stop-color:#E1E9FD;stop-opacity:0.6341"/>
							<stop  offset="0.7632" style="stop-color:#C7D5FB;stop-opacity:0.2363"/>
							<stop  offset="0.9993" style="stop-color:#BDCEFA;stop-opacity:0"/>
						</linearGradient>
						<path style="fill:url(#SVGID_00000077286153180745370070000001667233532758982536_);" d="M238.8,209.4L224,218
							c-0.3,0.2-0.5,0-0.5-0.4l0,0c0-0.4,0.2-0.8,0.5-1l14.8-8.5c0.3-0.2,0.5,0,0.5,0.4l0,0C239.3,208.9,239.1,209.3,238.8,209.4z"
							/>
					</g>
				</g>
				<g>
					
						<linearGradient id="SVGID_00000150808350399699399180000016870599538433598389_" gradientUnits="userSpaceOnUse" x1="261.1491" y1="299.0818" x2="253.4085" y2="285.9463" gradientTransform="matrix(1 0 0 -1 0 502)">
						<stop  offset="0" style="stop-color:#E4F2FF"/>
						<stop  offset="5.554383e-02" style="stop-color:#E1EFFF"/>
						<stop  offset="0.6478" style="stop-color:#C7D7FB"/>
						<stop  offset="0.9993" style="stop-color:#BDCEFA"/>
					</linearGradient>
					<polygon style="fill:url(#SVGID_00000150808350399699399180000016870599538433598389_);" points="261.1,210.8 253.5,215.1 
						253.5,208.1 261.1,203.7 					"/>
					<polygon class="st39" points="261.1,203.7 261,203.7 253.6,199.4 253.6,199.3 246,203.7 246,210.7 253.5,215.1 253.5,208.1 
											"/>
				</g>
			</g>
			<g>
				<path class="st40" d="M260.5,243.5l-15.3,8.8c-1.4,0.8-2.5,0-2.5-1.9v-16.8c0-1.8,1.1-4,2.5-4.8l15.3-8.8c1.4-0.8,2.5,0,2.5,1.9
					v16.8C263,240.6,261.8,242.7,260.5,243.5z"/>
				<g>
					<path class="st4" d="M242.7,250.5v-16.8c0-1.8,1.1-4,2.5-4.8l15.3-8.8c0.6-0.3,1.1-0.4,1.6-0.2l0,0l-6.2-3.5
						c-0.4-0.2-1-0.2-1.6,0.1l-15.3,8.8c-1.4,0.8-2.5,2.9-2.5,4.8v16.8c0,1,0.4,1.8,0.9,2l6.2,3.5l0,0
						C243,252.2,242.7,251.5,242.7,250.5z"/>
				</g>
				
					<linearGradient id="SVGID_00000107547590959147605500000002572655633760402570_" gradientUnits="userSpaceOnUse" x1="256.8389" y1="271.2146" x2="242.1713" y2="234.1595" gradientTransform="matrix(1 0 0 -1 0 502)">
					<stop  offset="0" style="stop-color:#FFFFFF"/>
					<stop  offset="0.3656" style="stop-color:#E1E9FD;stop-opacity:0.6341"/>
					<stop  offset="0.7632" style="stop-color:#C7D5FB;stop-opacity:0.2363"/>
					<stop  offset="0.9993" style="stop-color:#BDCEFA;stop-opacity:0"/>
				</linearGradient>
				<path style="fill:url(#SVGID_00000107547590959147605500000002572655633760402570_);" d="M254.2,235.7c1.3-1.4,2.3-3.5,2.3-5.3
					c0-2.3-1.6-3.3-3.7-2.1c-2,1.2-3.7,4-3.7,6.4c0,1.8,0.9,2.8,2.3,2.6c-3.1,2.5-5.5,7-5.7,10.9l14.1-8.1
					C259.7,236.3,257.3,234.6,254.2,235.7z"/>
			</g>
		</g>
	</g>
	<g>
		<g>
			<path class="st28" d="M278.2,262.2l-21.6,12c-1,0.6-2.6,0.5-3.7-0.2l-12.6-7.2c-1.1-0.6-1.2-1.6-0.3-2.2l21.6-12
				c1-0.6,2.6-0.5,3.7,0.2l12.6,7.2C279,260.7,279.1,261.6,278.2,262.2z"/>
			<g>
				
					<linearGradient id="SVGID_00000168799868031332880200000010284319214935846290_" gradientUnits="userSpaceOnUse" x1="283.4145" y1="219.1657" x2="225.8134" y2="167.4609" gradientTransform="matrix(1 0 0 -1 0 502)">
					<stop  offset="0" style="stop-color:#E4F2FF"/>
					<stop  offset="5.554383e-02" style="stop-color:#E1EFFF"/>
					<stop  offset="0.6478" style="stop-color:#C7D7FB"/>
					<stop  offset="0.9993" style="stop-color:#BDCEFA"/>
				</linearGradient>
				<path style="fill:url(#SVGID_00000168799868031332880200000010284319214935846290_);" d="M278.8,320.1v-58.7l0,0l0,0
					c-0.1,0.3-0.3,0.6-0.6,0.8l-21.6,12c-0.5,0.3-1.1,0.4-1.7,0.4v59.1c0.6,0,1.3-0.1,1.7-0.4l21.6-12
					C278.7,321,278.9,320.6,278.8,320.1z"/>
				
					<linearGradient id="SVGID_00000106107248248373168660000015452275837136545696_" gradientUnits="userSpaceOnUse" x1="247.1406" y1="154.3535" x2="247.1406" y2="242.1223" gradientTransform="matrix(1 0 0 -1 0 502)">
					<stop  offset="7.151770e-02" style="stop-color:#55D1FF"/>
					<stop  offset="0.1638" style="stop-color:#4FC3EE;stop-opacity:0.9006"/>
					<stop  offset="0.3466" style="stop-color:#41A0C2;stop-opacity:0.7038"/>
					<stop  offset="0.6024" style="stop-color:#29677B;stop-opacity:0.4282"/>
					<stop  offset="0.9186" style="stop-color:#0A191A;stop-opacity:8.763379e-02"/>
					<stop  offset="1" style="stop-color:#010400;stop-opacity:0"/>
				</linearGradient>
				<path style="fill:url(#SVGID_00000106107248248373168660000015452275837136545696_);" d="M252.9,274.1l-12.6-7.2
					c-0.5-0.3-0.8-0.7-0.9-1.1v58.7c-0.1,0.5,0.2,1,0.9,1.4l12.6,7.2c0.6,0.3,1.3,0.5,2,0.5v-59.1
					C254.2,274.6,253.4,274.4,252.9,274.1z"/>
				<path class="st39" d="M252.9,274.1l-12.6-7.2c-0.5-0.3-0.8-0.7-0.9-1.1v58.7c-0.1,0.5,0.2,1,0.9,1.4l12.6,7.2
					c0.6,0.3,1.3,0.5,2,0.5v-59.1C254.2,274.6,253.4,274.4,252.9,274.1z"/>
			</g>
		</g>
		<g>
			<g>
				<path class="st28" d="M290.7,279l-21.6,12.4c-1,0.6-2.6,0.5-3.7-0.2l-7.2-4.3c-1.1-0.6-1.2-1.6-0.3-2.2l21.5-12.3
					c1-0.6,2.6-0.5,3.7,0.2l7.3,4.2C291.5,277.5,291.7,278.5,290.7,279z"/>
				<g>
					
						<linearGradient id="SVGID_00000172415688193063017130000018328596260669901189_" gradientUnits="userSpaceOnUse" x1="291.08" y1="223.5003" x2="258.3219" y2="201.1652" gradientTransform="matrix(1 0 0 -1 0 502)">
						<stop  offset="0" style="stop-color:#E4F2FF"/>
						<stop  offset="5.554383e-02" style="stop-color:#E1EFFF"/>
						<stop  offset="0.6478" style="stop-color:#C7D7FB"/>
						<stop  offset="0.9993" style="stop-color:#BDCEFA"/>
					</linearGradient>
					<path style="fill:url(#SVGID_00000172415688193063017130000018328596260669901189_);" d="M291.3,280.4v-2.1l0,0l0,0
						c-0.1,0.3-0.3,0.6-0.6,0.8l-21.6,12.4c-0.5,0.3-1.1,0.4-1.7,0.4v2.4c0.6,0,1.3-0.1,1.7-0.4l21.6-12.4
						C291.2,281.2,291.4,280.8,291.3,280.4z"/>
					
						<linearGradient id="SVGID_00000132051137194523727740000008760678154892146061_" gradientUnits="userSpaceOnUse" x1="262.3406" y1="206.0876" x2="262.3406" y2="216.8255" gradientTransform="matrix(1 0 0 -1 0 502)">
						<stop  offset="7.151770e-02" style="stop-color:#55D1FF"/>
						<stop  offset="0.1638" style="stop-color:#4FC3EE;stop-opacity:0.9006"/>
						<stop  offset="0.3466" style="stop-color:#41A0C2;stop-opacity:0.7038"/>
						<stop  offset="0.6024" style="stop-color:#29677B;stop-opacity:0.4282"/>
						<stop  offset="0.9186" style="stop-color:#0A191A;stop-opacity:8.763379e-02"/>
						<stop  offset="1" style="stop-color:#010400;stop-opacity:0"/>
					</linearGradient>
					<path style="fill:url(#SVGID_00000132051137194523727740000008760678154892146061_);" d="M265.4,291.2l-7.2-4.3
						c-0.5-0.3-0.8-0.7-0.9-1.1v2.1c-0.1,0.5,0.2,1,0.9,1.4l7.2,4.3c0.6,0.3,1.3,0.5,2,0.5v-2.4C266.7,291.7,266,291.6,265.4,291.2z
						"/>
					<path class="st39" d="M265.4,291.2l-7.2-4.3c-0.5-0.3-0.8-0.7-0.9-1.1v2.1c-0.1,0.5,0.2,1,0.9,1.4l7.2,4.3
						c0.6,0.3,1.3,0.5,2,0.5v-2.4C266.7,291.7,266,291.6,265.4,291.2z"/>
				</g>
			</g>
			<g>
				<path class="st28" d="M299.9,291.8l-21.6,12.4c-1,0.6-2.6,0.5-3.7-0.2l-7.2-4.3c-1.1-0.6-1.2-1.6-0.3-2.2l21.5-12.3
					c1-0.6,2.6-0.5,3.7,0.2l7.3,4.2C300.8,290.3,300.9,291.3,299.9,291.8z"/>
				<g>
					
						<linearGradient id="SVGID_00000170982088768039145620000005475282661582325147_" gradientUnits="userSpaceOnUse" x1="299.9573" y1="210.4802" x2="267.1992" y2="188.1451" gradientTransform="matrix(1 0 0 -1 0 502)">
						<stop  offset="0" style="stop-color:#E4F2FF"/>
						<stop  offset="5.554383e-02" style="stop-color:#E1EFFF"/>
						<stop  offset="0.6478" style="stop-color:#C7D7FB"/>
						<stop  offset="0.9993" style="stop-color:#BDCEFA"/>
					</linearGradient>
					<path style="fill:url(#SVGID_00000170982088768039145620000005475282661582325147_);" d="M300.5,293.2v-2.1l0,0l0,0
						c-0.1,0.3-0.3,0.6-0.6,0.8l-21.6,12.4c-0.5,0.3-1.1,0.4-1.7,0.4v2.4c0.7,0,1.3-0.1,1.7-0.4l21.6-12.4
						C300.4,294,300.6,293.6,300.5,293.2z"/>
					
						<linearGradient id="SVGID_00000083077447631548038690000008756289833558053520_" gradientUnits="userSpaceOnUse" x1="271.5406" y1="193.2503" x2="271.5406" y2="203.9882" gradientTransform="matrix(1 0 0 -1 0 502)">
						<stop  offset="7.151770e-02" style="stop-color:#55D1FF"/>
						<stop  offset="0.1638" style="stop-color:#4FC3EE;stop-opacity:0.9006"/>
						<stop  offset="0.3466" style="stop-color:#41A0C2;stop-opacity:0.7038"/>
						<stop  offset="0.6024" style="stop-color:#29677B;stop-opacity:0.4282"/>
						<stop  offset="0.9186" style="stop-color:#0A191A;stop-opacity:8.763379e-02"/>
						<stop  offset="1" style="stop-color:#010400;stop-opacity:0"/>
					</linearGradient>
					<path style="fill:url(#SVGID_00000083077447631548038690000008756289833558053520_);" d="M274.6,304.1l-7.2-4.3
						c-0.5-0.3-0.8-0.7-0.9-1.1v2.1c-0.1,0.5,0.2,1,0.9,1.4l7.2,4.3c0.6,0.3,1.3,0.5,2,0.5v-2.4
						C275.9,304.6,275.2,304.4,274.6,304.1z"/>
					<path class="st39" d="M274.6,304.1l-7.2-4.3c-0.5-0.3-0.8-0.7-0.9-1.1v2.1c-0.1,0.5,0.2,1,0.9,1.4l7.2,4.3
						c0.6,0.3,1.3,0.5,2,0.5v-2.4C275.9,304.6,275.2,304.4,274.6,304.1z"/>
				</g>
			</g>
			<g>
				<path class="st28" d="M309.1,304.7l-21.6,12.4c-1,0.6-2.6,0.5-3.7-0.2l-7.2-4.3c-1.1-0.6-1.2-1.6-0.3-2.2l21.5-12.3
					c1-0.6,2.6-0.5,3.7,0.2l7.3,4.2C310,303.2,310.1,304.1,309.1,304.7z"/>
				<g>
					
						<linearGradient id="SVGID_00000103266221045039651630000012188870823631638195_" gradientUnits="userSpaceOnUse" x1="308.8653" y1="197.4151" x2="276.1073" y2="175.08" gradientTransform="matrix(1 0 0 -1 0 502)">
						<stop  offset="0" style="stop-color:#E4F2FF"/>
						<stop  offset="5.554383e-02" style="stop-color:#E1EFFF"/>
						<stop  offset="0.6478" style="stop-color:#C7D7FB"/>
						<stop  offset="0.9993" style="stop-color:#BDCEFA"/>
					</linearGradient>
					<path style="fill:url(#SVGID_00000103266221045039651630000012188870823631638195_);" d="M309.8,306v-2.1l0,0l0,0
						c-0.1,0.3-0.3,0.6-0.6,0.8l-21.6,12.4c-0.5,0.3-1.1,0.4-1.7,0.4v2.4c0.6,0,1.3-0.1,1.7-0.4l21.6-12.4
						C309.6,306.8,309.8,306.4,309.8,306z"/>
					
						<linearGradient id="SVGID_00000077312110146872429090000014465511298518722693_" gradientUnits="userSpaceOnUse" x1="280.7406" y1="180.413" x2="280.7406" y2="191.1509" gradientTransform="matrix(1 0 0 -1 0 502)">
						<stop  offset="7.151770e-02" style="stop-color:#55D1FF"/>
						<stop  offset="0.1638" style="stop-color:#4FC3EE;stop-opacity:0.9006"/>
						<stop  offset="0.3466" style="stop-color:#41A0C2;stop-opacity:0.7038"/>
						<stop  offset="0.6024" style="stop-color:#29677B;stop-opacity:0.4282"/>
						<stop  offset="0.9186" style="stop-color:#0A191A;stop-opacity:8.763379e-02"/>
						<stop  offset="1" style="stop-color:#010400;stop-opacity:0"/>
					</linearGradient>
					<path style="fill:url(#SVGID_00000077312110146872429090000014465511298518722693_);" d="M283.8,316.9l-7.2-4.3
						c-0.5-0.3-0.8-0.7-0.9-1.1v2.1c-0.1,0.5,0.2,1,0.9,1.4l7.2,4.3c0.6,0.3,1.3,0.5,2,0.5v-2.4
						C285.1,317.4,284.4,317.2,283.8,316.9z"/>
					<path class="st39" d="M283.8,316.9l-7.2-4.3c-0.5-0.3-0.8-0.7-0.9-1.1v2.1c-0.1,0.5,0.2,1,0.9,1.4l7.2,4.3
						c0.6,0.3,1.3,0.5,2,0.5v-2.4C285.1,317.4,284.4,317.2,283.8,316.9z"/>
				</g>
			</g>
			<g>
				<path class="st28" d="M318.3,317.5l-21.6,12.4c-1,0.6-2.6,0.5-3.7-0.2l-7.2-4.3c-1.1-0.6-1.2-1.6-0.3-2.2l21.5-12.3
					c1-0.6,2.6-0.5,3.7,0.2l7.3,4.2C319.2,316,319.3,317,318.3,317.5z"/>
				<g>
					
						<linearGradient id="SVGID_00000078008513473693129540000003965984191567631769_" gradientUnits="userSpaceOnUse" x1="317.7892" y1="184.3268" x2="285.0311" y2="161.9918" gradientTransform="matrix(1 0 0 -1 0 502)">
						<stop  offset="0" style="stop-color:#E4F2FF"/>
						<stop  offset="5.554383e-02" style="stop-color:#E1EFFF"/>
						<stop  offset="0.6478" style="stop-color:#C7D7FB"/>
						<stop  offset="0.9993" style="stop-color:#BDCEFA"/>
					</linearGradient>
					<path style="fill:url(#SVGID_00000078008513473693129540000003965984191567631769_);" d="M319,318.9v-2.1l0,0l0,0
						c-0.1,0.3-0.3,0.6-0.6,0.8L296.8,330c-0.5,0.3-1.1,0.4-1.7,0.4v2.4c0.7,0,1.3-0.1,1.7-0.4l21.6-12.4
						C318.8,319.7,319,319.3,319,318.9z"/>
					
						<linearGradient id="SVGID_00000121279954236450217750000018322098852542381469_" gradientUnits="userSpaceOnUse" x1="290.0406" y1="167.5757" x2="290.0406" y2="178.3136" gradientTransform="matrix(1 0 0 -1 0 502)">
						<stop  offset="7.151770e-02" style="stop-color:#55D1FF"/>
						<stop  offset="0.1638" style="stop-color:#4FC3EE;stop-opacity:0.9006"/>
						<stop  offset="0.3466" style="stop-color:#41A0C2;stop-opacity:0.7038"/>
						<stop  offset="0.6024" style="stop-color:#29677B;stop-opacity:0.4282"/>
						<stop  offset="0.9186" style="stop-color:#0A191A;stop-opacity:8.763379e-02"/>
						<stop  offset="1" style="stop-color:#010400;stop-opacity:0"/>
					</linearGradient>
					<path style="fill:url(#SVGID_00000121279954236450217750000018322098852542381469_);" d="M293.1,329.7l-7.2-4.3
						c-0.5-0.3-0.8-0.7-0.9-1.1v2.1c-0.1,0.5,0.2,1,0.9,1.4l7.2,4.3c0.6,0.3,1.3,0.5,2,0.5v-2.4
						C294.4,330.2,293.6,330.1,293.1,329.7z"/>
					<path class="st39" d="M293.1,329.7l-7.2-4.3c-0.5-0.3-0.8-0.7-0.9-1.1v2.1c-0.1,0.5,0.2,1,0.9,1.4l7.2,4.3
						c0.6,0.3,1.3,0.5,2,0.5v-2.4C294.4,330.2,293.6,330.1,293.1,329.7z"/>
				</g>
			</g>
			<g>
				<path class="st28" d="M327.6,330.4L306,342.7c-1,0.6-2.6,0.5-3.7-0.2l-7.2-4.3c-1.1-0.6-1.2-1.6-0.3-2.2l21.5-12.3
					c1-0.6,2.6-0.5,3.7,0.2l7.3,4.2C328.4,328.8,328.5,329.8,327.6,330.4z"/>
				<g>
					
						<linearGradient id="SVGID_00000151517143115641316350000012059400431377904008_" gradientUnits="userSpaceOnUse" x1="326.6288" y1="171.362" x2="293.8706" y2="149.0269" gradientTransform="matrix(1 0 0 -1 0 502)">
						<stop  offset="0" style="stop-color:#E4F2FF"/>
						<stop  offset="5.554383e-02" style="stop-color:#E1EFFF"/>
						<stop  offset="0.6478" style="stop-color:#C7D7FB"/>
						<stop  offset="0.9993" style="stop-color:#BDCEFA"/>
					</linearGradient>
					<path style="fill:url(#SVGID_00000151517143115641316350000012059400431377904008_);" d="M328.2,331.7v-2.1l0,0l0,0
						c-0.1,0.3-0.3,0.6-0.6,0.8L306,342.7c-0.5,0.3-1.1,0.4-1.7,0.4v2.4c0.7,0,1.3-0.1,1.7-0.4l21.6-12.4
						C328.1,332.5,328.3,332.1,328.2,331.7z"/>
					
						<linearGradient id="SVGID_00000139981624438109832250000013361247205441710508_" gradientUnits="userSpaceOnUse" x1="299.2406" y1="154.7383" x2="299.2406" y2="165.4763" gradientTransform="matrix(1 0 0 -1 0 502)">
						<stop  offset="7.151770e-02" style="stop-color:#55D1FF"/>
						<stop  offset="0.1638" style="stop-color:#4FC3EE;stop-opacity:0.9006"/>
						<stop  offset="0.3466" style="stop-color:#41A0C2;stop-opacity:0.7038"/>
						<stop  offset="0.6024" style="stop-color:#29677B;stop-opacity:0.4282"/>
						<stop  offset="0.9186" style="stop-color:#0A191A;stop-opacity:8.763379e-02"/>
						<stop  offset="1" style="stop-color:#010400;stop-opacity:0"/>
					</linearGradient>
					<path style="fill:url(#SVGID_00000139981624438109832250000013361247205441710508_);" d="M302.3,342.6l-7.2-4.3
						c-0.5-0.3-0.8-0.7-0.9-1.1v2.1c-0.1,0.5,0.2,1,0.9,1.4l7.2,4.3c0.6,0.3,1.3,0.5,2,0.5v-2.4
						C303.6,343.1,302.8,342.9,302.3,342.6z"/>
					<path class="st39" d="M302.3,342.6l-7.2-4.3c-0.5-0.3-0.8-0.7-0.9-1.1v2.1c-0.1,0.5,0.2,1,0.9,1.4l7.2,4.3
						c0.6,0.3,1.3,0.5,2,0.5v-2.4C303.6,343.1,302.8,342.9,302.3,342.6z"/>
				</g>
			</g>
		</g>
	</g>
	<g>
		<g>
			<path d="M254.5,266c0,0.5,0.8,1.2,1.9,1.9c1.6,0.9,2.1,2.1,4.1,0.9c0.6-0.3,0.8-0.6,0.8-0.8v-1.2c0.1-0.6-1.3-0.9-2.4-1.6
				c-1.6-0.9-3.3-1.4-4.1-0.9c-0.2,0.1-0.3,0.3-0.3,0.4L254.5,266L254.5,266z"/>
			<path class="st54" d="M256.5,266.7c-1.6-0.9-2.4-1.9-1.6-2.4c0.8-0.5,2.5,0,4.1,0.9s3.6,1.2,1.6,2.4
				C258.6,268.7,258.1,267.6,256.5,266.7z"/>
		</g>
		<g>
			<path d="M258.9,262.9c0,0.5,0.8,1.2,1.9,1.9c1.6,0.9,2.1,2.1,4.1,0.9c0.6-0.3,0.8-0.6,0.8-0.8v-1.2c0.1-0.6-1.3-0.9-2.4-1.6
				c-1.6-0.9-3.3-1.4-4.1-0.9c-0.2,0.1-0.3,0.3-0.3,0.4V262.9z"/>
			<path class="st54" d="M260.9,263.6c-1.6-0.9-2.4-1.9-1.6-2.4s2.5,0,4.1,0.9s3.6,1.2,1.6,2.4C263,265.7,262.5,264.6,260.9,263.6z"
				/>
		</g>
		<g>
			<path class="st55" d="M257.2,226.6L257.2,226.6c0.6-0.4,1.4-0.2,1.8,0.4l5.4,8.6c0.4,0.6,0.2,1.4-0.4,1.8l0,0
				c-0.6,0.4-1.4,0.2-1.8-0.4l-5.4-8.6C256.4,227.8,256.6,227,257.2,226.6z"/>
			<path class="st5" d="M260.7,236l1.7,2.8c0.6,0.9,1.8,1.2,2.8,0.6l0,0c0.9-0.6,1.2-1.8,0.6-2.8l-1.7-2.8
				C264.1,233.9,262,233.1,260.7,236z"/>
		</g>
		<g>
			<path class="st56" d="M261.3,266.3c0.1-0.1,0.1-0.3,0.1-0.4v-13.6c0-0.9-0.9-1.6-2-1.6l0,0c-1.1,0-2,0.7-2,1.6V267
				c0,0.2,0.1,0.4,0.3,0.5C258.6,267.8,260.4,268.1,261.3,266.3z"/>
		</g>
		<g>
			<path class="st4" d="M265.7,263.1c0.1-0.1,0.1-0.3,0.1-0.4l-0.3-13.6c0-0.9-0.9-1.5-2-1.5l0,0c-1.1,0-1.9,0.7-1.9,1.6l0.3,14.7
				c0,0.2,0.1,0.4,0.4,0.5C263,264.6,264.8,264.9,265.7,263.1z"/>
		</g>
		<path class="st2" d="M258.1,254.8c0,0,0.1,0.1,0.2,0.1c0.9,0.1,4-0.6,7.1-4.1c0.3-0.3,0.4-0.7,0.4-1v-10c0-0.8-0.3-1.3-0.7-1.5
			l-2.3-1.4c-0.4-0.3-1-0.2-1.7,0.2l-3.2,1.9c-1.3,0.7-2.4,2.6-2.4,4.1v10.1c0,0.2,0.1,0.4,0.2,0.5L258.1,254.8z"/>
		<path class="st57" d="M259.1,239.4c0,0.2,0.2,0.5,0.5,0.7c0.6,0.4,1.7,0.4,2.3,0c0.3-0.2,0.5-0.4,0.5-0.7v-2.2
			c0-0.2-0.2-0.5-0.5-0.7c-0.6-0.4-1.7-0.4-2.3,0c-0.3,0.2-0.5,0.4-0.5,0.7V239.4z"/>
		<circle class="st55" cx="260.7" cy="233.7" r="4.6"/>
		<g>
			<path class="st55" d="M247.3,233L247.3,233c0.5-0.5,1.3-0.6,1.8-0.1l7.3,6.6c0.5,0.5,0.6,1.3,0.1,1.8l0,0
				c-0.5,0.5-1.3,0.6-1.8,0.1l-7.3-6.6C246.9,234.4,246.8,233.6,247.3,233z"/>
			<path class="st5" d="M253.1,241l2.5,2.1c0.8,0.7,2.1,0.6,2.8-0.2l0,0c0.7-0.8,0.6-2.1-0.2-2.8l-2.5-2.1
				C255.7,237.9,253.3,237.8,253.1,241z"/>
		</g>
		<path class="st58" d="M263.3,237.9c-1.4,0.8-2.5,0.2-2.9-0.4c-1-1.5-1.1-0.5-1.7-1.2c-0.8-1.3-0.6-3-1.7-3.8
			c-1.5-1.1-1.1-3.4,2.9-4.4c5.4-1.4,7.5,5.4,4.1,9.3C263.7,237.6,263.6,237.7,263.3,237.9z"/>
		<path class="st55" d="M259.1,236.5c-0.4,0.4-0.8,0.3-1-0.3c-0.1-0.5,0.1-1.3,0.4-1.6c0.4-0.4,0.8-0.3,1,0.3
			C259.7,235.3,259.5,236.1,259.1,236.5z"/>
	</g>
	<g>
		<g>
			<g>
				<path class="st59" d="M262.6,349.4L238,363.6c-1,0.6-2.8,0.5-3.9-0.2l-25.8-14.9c-1.2-0.7-1.3-1.7-0.3-2.3l24.6-14.2
					c1-0.6,2.8-0.5,3.9,0.2l25.8,14.9C263.5,347.8,263.6,348.8,262.6,349.4z"/>
				<g>
					<path class="st39" d="M262.6,349.4L238,363.6c-1,0.6-2.8,0.5-3.9-0.2l-25.8-14.9c-0.6-0.4-1-0.9-1-1.3l0,0v1
						c0,0.5,0.3,0.9,1,1.3l25.8,14.9c1.2,0.7,2.9,0.7,3.9,0.2l24.6-14.2c0.4-0.3,0.7-0.6,0.7-1v-1l0,0
						C263.2,348.8,263,349.1,262.6,349.4z"/>
				</g>
				<g>
					
						<linearGradient id="SVGID_00000176747031771880551280000004225102281711981494_" gradientUnits="userSpaceOnUse" x1="272.775" y1="156.1393" x2="205.4057" y2="155.1937" gradientTransform="matrix(1 0 0 -1 0 502)">
						<stop  offset="0" style="stop-color:#FFFFFF"/>
						<stop  offset="0.5824" style="stop-color:#DAE4FC"/>
						<stop  offset="0.9993" style="stop-color:#BDCEFA"/>
					</linearGradient>
					<path style="fill:url(#SVGID_00000176747031771880551280000004225102281711981494_);" d="M229,346.1l-9.9,5.7
						c-0.3,0.2-0.9,0.2-1.3-0.1l-6.5-3.8c-0.4-0.2-0.4-0.6-0.1-0.8l9.9-5.7c0.3-0.2,0.9-0.2,1.3,0.1l6.5,3.8
						C229.3,345.5,229.4,345.9,229,346.1z"/>
					
						<linearGradient id="SVGID_00000083807230165534480840000008081930191443287969_" gradientUnits="userSpaceOnUse" x1="272.7825" y1="155.5978" x2="205.4132" y2="154.6523" gradientTransform="matrix(1 0 0 -1 0 502)">
						<stop  offset="0" style="stop-color:#FFFFFF"/>
						<stop  offset="0.5824" style="stop-color:#DAE4FC"/>
						<stop  offset="0.9993" style="stop-color:#BDCEFA"/>
					</linearGradient>
					<path style="fill:url(#SVGID_00000083807230165534480840000008081930191443287969_);" d="M245.9,340.7l-23,13.3
						c-0.3,0.2-0.9,0.2-1.2-0.1l0,0c-0.4-0.2-0.4-0.5-0.1-0.7l23-13.3c0.3-0.2,0.9-0.2,1.2,0.1l0,0
						C246.2,340.2,246.2,340.6,245.9,340.7z"/>
					
						<linearGradient id="SVGID_00000092430655040161004350000018023167989742527396_" gradientUnits="userSpaceOnUse" x1="272.804" y1="154.063" x2="205.4348" y2="153.1175" gradientTransform="matrix(1 0 0 -1 0 502)">
						<stop  offset="0" style="stop-color:#FFFFFF"/>
						<stop  offset="0.5824" style="stop-color:#DAE4FC"/>
						<stop  offset="0.9993" style="stop-color:#BDCEFA"/>
					</linearGradient>
					<path style="fill:url(#SVGID_00000092430655040161004350000018023167989742527396_);" d="M248.4,342.2l-23,13.3
						c-0.3,0.2-0.9,0.2-1.2-0.1l0,0c-0.4-0.2-0.4-0.5-0.1-0.7l23-13.3c0.3-0.2,0.9-0.2,1.2,0.1l0,0
						C248.7,341.7,248.7,342,248.4,342.2z"/>
					
						<linearGradient id="SVGID_00000003086399520769290300000011374518741252975235_" gradientUnits="userSpaceOnUse" x1="272.8256" y1="152.5269" x2="205.4564" y2="151.5813" gradientTransform="matrix(1 0 0 -1 0 502)">
						<stop  offset="0" style="stop-color:#FFFFFF"/>
						<stop  offset="0.5824" style="stop-color:#DAE4FC"/>
						<stop  offset="0.9993" style="stop-color:#BDCEFA"/>
					</linearGradient>
					<path style="fill:url(#SVGID_00000003086399520769290300000011374518741252975235_);" d="M251,343.7L228,357
						c-0.3,0.2-0.9,0.2-1.2-0.1l0,0c-0.4-0.2-0.4-0.5-0.1-0.7l23-13.3c0.3-0.2,0.9-0.2,1.2,0.1l0,0
						C251.2,343.2,251.3,343.5,251,343.7z"/>
					
						<linearGradient id="SVGID_00000123427453589526927720000015516857184471735222_" gradientUnits="userSpaceOnUse" x1="272.8971" y1="147.434" x2="205.5278" y2="146.4884" gradientTransform="matrix(1 0 0 -1 0 502)">
						<stop  offset="0" style="stop-color:#FFFFFF"/>
						<stop  offset="0.5824" style="stop-color:#DAE4FC"/>
						<stop  offset="0.9993" style="stop-color:#BDCEFA"/>
					</linearGradient>
					<path style="fill:url(#SVGID_00000123427453589526927720000015516857184471735222_);" d="M240.5,352.6l-10,5.8
						c-0.3,0.2-0.9,0.2-1.2-0.1l0,0c-0.4-0.2-0.4-0.5-0.1-0.7l10-5.8c0.3-0.2,0.9-0.2,1.2,0.1l0,0
						C240.7,352.1,240.8,352.5,240.5,352.6z"/>
					
						<linearGradient id="SVGID_00000103238394478753762890000016788825756973007037_" gradientUnits="userSpaceOnUse" x1="272.6721" y1="163.4554" x2="205.3029" y2="162.5098" gradientTransform="matrix(1 0 0 -1 0 502)">
						<stop  offset="0" style="stop-color:#FFFFFF"/>
						<stop  offset="0.5824" style="stop-color:#DAE4FC"/>
						<stop  offset="0.9993" style="stop-color:#BDCEFA"/>
					</linearGradient>
					<path style="fill:url(#SVGID_00000103238394478753762890000016788825756973007037_);" d="M242,338.6l-9.9,5.7
						c-0.3,0.2-0.9,0.2-1.3-0.1l-6.5-3.8c-0.4-0.2-0.4-0.6-0.1-0.8l9.9-5.7c0.3-0.2,0.9-0.2,1.3,0.1l6.5,3.8
						C242.3,338,242.4,338.4,242,338.6z"/>
					
						<linearGradient id="SVGID_00000117640356349783604800000006917767011212267446_" gradientUnits="userSpaceOnUse" x1="272.8839" y1="148.3808" x2="205.5147" y2="147.4353" gradientTransform="matrix(1 0 0 -1 0 502)">
						<stop  offset="0" style="stop-color:#FFFFFF"/>
						<stop  offset="0.5824" style="stop-color:#DAE4FC"/>
						<stop  offset="0.9993" style="stop-color:#BDCEFA"/>
					</linearGradient>
					<path style="fill:url(#SVGID_00000117640356349783604800000006917767011212267446_);" d="M259.5,348.7l-23,13.3
						c-0.3,0.2-0.9,0.2-1.3-0.1l-3.1-1.8c-0.4-0.2-0.4-0.6-0.1-0.8l23-13.3c0.3-0.2,0.9-0.2,1.3,0.1l3.1,1.8
						C259.8,348.1,259.9,348.5,259.5,348.7z"/>
				</g>
			</g>
			<g>
				<g>
					<path class="st39" d="M262.6,351.2L238,365.4c-1,0.6-2.8,0.5-3.9-0.2l-25.8-14.9c-0.6-0.4-1-0.9-1-1.3l0,0v1
						c0,0.5,0.3,0.9,1,1.3l25.8,14.9c1.2,0.7,2.9,0.7,3.9,0.2l24.6-14.2c0.4-0.3,0.7-0.6,0.7-1v-1l0,0
						C263.2,350.6,263,350.9,262.6,351.2z"/>
				</g>
				
					<linearGradient id="SVGID_00000033365946075380727820000014803526125161452210_" gradientUnits="userSpaceOnUse" x1="263.5151" y1="144.8234" x2="207.6834" y2="144.8234" gradientTransform="matrix(1 0 0 -1 0 502)">
					<stop  offset="0" style="stop-color:#FFFFFF"/>
					<stop  offset="0.5824" style="stop-color:#DAE4FC"/>
					<stop  offset="0.9993" style="stop-color:#BDCEFA"/>
				</linearGradient>
				<path style="fill:url(#SVGID_00000033365946075380727820000014803526125161452210_);" d="M262.6,350.4L238,364.6
					c-1,0.6-2.8,0.5-3.9-0.2l-25.8-14.9c-0.4-0.3-0.7-0.6-0.9-0.9c-0.2,0.5,0,1.2,0.9,1.7l25.8,14.9c1.2,0.7,2.9,0.7,3.9,0.2
					l24.6-14.2c0.6-0.4,0.8-0.9,0.6-1.4C263.1,350,262.9,350.2,262.6,350.4z"/>
			</g>
			<g>
				<g>
					<path class="st39" d="M262.6,352.9L238,367.1c-1,0.6-2.8,0.5-3.9-0.2L208.3,352c-0.6-0.4-1-0.9-1-1.3l0,0v1
						c0,0.5,0.3,0.9,1,1.3l25.7,15c1.2,0.7,2.9,0.7,3.9,0.2l24.6-14.2c0.4-0.3,0.7-0.6,0.7-1v-1l0,0
						C263.2,352.3,263,352.7,262.6,352.9z"/>
				</g>
				
					<linearGradient id="SVGID_00000085971763219879419300000007273848693259089045_" gradientUnits="userSpaceOnUse" x1="264.4157" y1="143.6203" x2="207.0357" y2="142.8837" gradientTransform="matrix(1 0 0 -1 0 502)">
					<stop  offset="0" style="stop-color:#FFFFFF"/>
					<stop  offset="0.5824" style="stop-color:#DAE4FC"/>
					<stop  offset="0.9993" style="stop-color:#BDCEFA"/>
				</linearGradient>
				<path style="fill:url(#SVGID_00000085971763219879419300000007273848693259089045_);" d="M262.6,352.1L238,366.3
					c-1,0.6-2.8,0.5-3.9-0.2l-25.8-14.9c-0.4-0.3-0.7-0.6-0.9-0.9c-0.2,0.5,0,1.2,0.9,1.7l25.7,15c1.2,0.7,2.9,0.7,3.9,0.2
					l24.6-14.2c0.6-0.4,0.8-0.9,0.6-1.4C263.1,351.8,262.9,352,262.6,352.1z"/>
			</g>
			<g>
				<g>
					<path class="st39" d="M262.6,354.7L238,368.9c-1,0.6-2.8,0.5-3.9-0.2l-25.8-14.9c-0.6-0.4-1-0.9-1-1.3l0,0v1
						c0,0.5,0.3,0.9,1,1.3l25.8,14.9c1.2,0.7,2.9,0.7,3.9,0.2l24.6-14.2c0.4-0.3,0.7-0.6,0.7-1v-1l0,0
						C263.2,354.1,263,354.4,262.6,354.7z"/>
				</g>
				
					<linearGradient id="SVGID_00000046325734358510176470000000990851181244828087_" gradientUnits="userSpaceOnUse" x1="263.2018" y1="140.397" x2="207.565" y2="141.7439" gradientTransform="matrix(1 0 0 -1 0 502)">
					<stop  offset="0" style="stop-color:#FFFFFF"/>
					<stop  offset="0.5824" style="stop-color:#DAE4FC"/>
					<stop  offset="0.9993" style="stop-color:#BDCEFA"/>
				</linearGradient>
				<path style="fill:url(#SVGID_00000046325734358510176470000000990851181244828087_);" d="M262.6,353.9L238,368.1
					c-1,0.6-2.8,0.5-3.9-0.2L208.3,353c-0.4-0.3-0.7-0.6-0.9-0.9c-0.2,0.5,0,1.2,0.9,1.7l25.8,14.9c1.2,0.7,2.9,0.7,3.9,0.2
					l24.6-14.2c0.6-0.4,0.8-0.9,0.6-1.4C263.1,353.5,262.9,353.7,262.6,353.9z"/>
			</g>
			<g>
				<g>
					<path class="st39" d="M262.6,356.5L238,370.7c-1,0.6-2.8,0.5-3.9-0.2l-25.8-14.9c-0.6-0.4-1-0.9-1-1.3l0,0v1
						c0,0.5,0.3,0.9,1,1.3l25.8,14.9c1.2,0.7,2.9,0.7,3.9,0.2l24.6-14.2c0.4-0.3,0.7-0.6,0.7-1v-1l0,0
						C263.2,355.9,263,356.2,262.6,356.5z"/>
				</g>
				
					<linearGradient id="SVGID_00000020361699465242037370000008980935264407795346_" gradientUnits="userSpaceOnUse" x1="263.4616" y1="139.5234" x2="207.2847" y2="139.5234" gradientTransform="matrix(1 0 0 -1 0 502)">
					<stop  offset="0" style="stop-color:#FFFFFF"/>
					<stop  offset="0.5824" style="stop-color:#DAE4FC"/>
					<stop  offset="0.9993" style="stop-color:#BDCEFA"/>
				</linearGradient>
				<path style="fill:url(#SVGID_00000020361699465242037370000008980935264407795346_);" d="M262.6,355.7L238,369.9
					c-1,0.6-2.8,0.5-3.9-0.2l-25.8-14.9c-0.4-0.3-0.7-0.6-0.9-0.9c-0.2,0.5,0,1.2,0.9,1.7l25.8,14.9c1.2,0.7,2.9,0.7,3.9,0.2
					l24.6-14.2c0.6-0.4,0.8-0.9,0.6-1.4C263.1,355.3,262.9,355.5,262.6,355.7z"/>
			</g>
			<g>
				<g>
					<path class="st39" d="M262.6,358.2L238,372.4c-1,0.6-2.8,0.5-3.9-0.2l-25.8-14.9c-0.6-0.4-1-0.9-1-1.3l0,0v1
						c0,0.5,0.3,0.9,1,1.3l25.8,14.9c1.2,0.7,2.9,0.7,3.9,0.2l24.6-14.2c0.4-0.3,0.7-0.6,0.7-1v-1l0,0
						C263.2,357.6,263,358,262.6,358.2z"/>
				</g>
				
					<linearGradient id="SVGID_00000072258220568357673330000009390667888052820141_" gradientUnits="userSpaceOnUse" x1="262.7513" y1="137.8234" x2="207.1003" y2="137.8234" gradientTransform="matrix(1 0 0 -1 0 502)">
					<stop  offset="0" style="stop-color:#FFFFFF"/>
					<stop  offset="0.5824" style="stop-color:#DAE4FC"/>
					<stop  offset="0.9993" style="stop-color:#BDCEFA"/>
				</linearGradient>
				<path style="fill:url(#SVGID_00000072258220568357673330000009390667888052820141_);" d="M262.6,357.4L238,371.6
					c-1,0.6-2.8,0.5-3.9-0.2l-25.8-14.9c-0.4-0.3-0.7-0.6-0.9-0.9c-0.2,0.5,0,1.2,0.9,1.7l25.8,14.9c1.2,0.7,2.9,0.7,3.9,0.2
					l24.6-14.2c0.6-0.4,0.8-0.9,0.6-1.4C263.1,357.1,262.9,357.3,262.6,357.4z"/>
			</g>
			<g>
				<g>
					<path class="st39" d="M262.6,360L238,374.2c-1,0.6-2.8,0.5-3.9-0.2l-25.8-14.9c-0.6-0.4-1-0.9-1-1.3l0,0v1c0,0.5,0.3,0.9,1,1.3
						L234,375c1.2,0.7,2.9,0.7,3.9,0.2l24.6-14.2c0.4-0.3,0.7-0.6,0.7-1v-1l0,0C263.2,359.4,263,359.7,262.6,360z"/>
				</g>
				
					<linearGradient id="SVGID_00000011003237512224619260000008925054439962835353_" gradientUnits="userSpaceOnUse" x1="262.985" y1="136.0234" x2="208.1265" y2="136.0234" gradientTransform="matrix(1 0 0 -1 0 502)">
					<stop  offset="0" style="stop-color:#FFFFFF"/>
					<stop  offset="0.5824" style="stop-color:#DAE4FC"/>
					<stop  offset="0.9993" style="stop-color:#BDCEFA"/>
				</linearGradient>
				<path style="fill:url(#SVGID_00000011003237512224619260000008925054439962835353_);" d="M262.6,359.2L238,373.4
					c-1,0.6-2.8,0.5-3.9-0.2l-25.8-14.9c-0.4-0.3-0.7-0.6-0.9-0.9c-0.2,0.5,0,1.2,0.9,1.7L234,374c1.2,0.7,2.9,0.7,3.9,0.2
					l24.6-14.2c0.6-0.4,0.8-0.9,0.6-1.4C263.1,358.8,262.9,359,262.6,359.2z"/>
			</g>
		</g>
		<g>
			<g>
				<path class="st28" d="M322,304.8l24.6,14.2c1,0.6,2.8,0.5,3.9-0.2l25.8-14.9c1.2-0.7,1.3-1.7,0.3-2.3L352,287.4
					c-1-0.6-2.8-0.5-3.9,0.2l-25.8,14.9C321.2,303.2,321,304.2,322,304.8z"/>
				<g>
					<path class="st39" d="M322,304.8l24.6,14.2c1,0.6,2.8,0.5,3.9-0.2l25.8-14.9c0.6-0.4,1-0.9,1-1.3l0,0v1c0,0.5-0.3,0.9-1,1.3
						l-25.8,14.9c-1.2,0.7-2.9,0.7-3.9,0.2L322,305.8c-0.4-0.3-0.7-0.6-0.7-1v-1l0,0C321.4,304.2,321.6,304.5,322,304.8z"/>
				</g>
				<g>
					
						<linearGradient id="SVGID_00000105386226597959855490000003313294288329396904_" gradientUnits="userSpaceOnUse" x1="376.6536" y1="200.3522" x2="325.428" y2="198.9582" gradientTransform="matrix(1 0 0 -1 0 502)">
						<stop  offset="0" style="stop-color:#FFFFFF"/>
						<stop  offset="0.5824" style="stop-color:#DAE4FC"/>
						<stop  offset="0.9993" style="stop-color:#BDCEFA"/>
					</linearGradient>
					<path style="fill:url(#SVGID_00000105386226597959855490000003313294288329396904_);" d="M338.7,296.1l23,13.3
						c0.3,0.2,0.9,0.2,1.2-0.1l0,0c0.4-0.2,0.4-0.5,0.1-0.7l-23-13.3c-0.3-0.2-0.9-0.2-1.2,0.1l0,0
						C338.5,295.6,338.4,295.9,338.7,296.1z"/>
					
						<linearGradient id="SVGID_00000000200113237444983950000012631787673924608678_" gradientUnits="userSpaceOnUse" x1="376.6925" y1="198.9212" x2="325.4671" y2="197.5273" gradientTransform="matrix(1 0 0 -1 0 502)">
						<stop  offset="0" style="stop-color:#FFFFFF"/>
						<stop  offset="0.5824" style="stop-color:#DAE4FC"/>
						<stop  offset="0.9993" style="stop-color:#BDCEFA"/>
					</linearGradient>
					<path style="fill:url(#SVGID_00000000200113237444983950000012631787673924608678_);" d="M336.2,297.6l23,13.3
						c0.3,0.2,0.9,0.2,1.2-0.1l0,0c0.4-0.2,0.4-0.5,0.1-0.7l-23-13.3c-0.3-0.2-0.9-0.2-1.2,0.1l0,0
						C335.9,297.1,335.9,297.4,336.2,297.6z"/>
					
						<linearGradient id="SVGID_00000000189423434782116400000004066970997971825805_" gradientUnits="userSpaceOnUse" x1="376.7288" y1="197.5903" x2="325.5034" y2="196.1964" gradientTransform="matrix(1 0 0 -1 0 502)">
						<stop  offset="0" style="stop-color:#FFFFFF"/>
						<stop  offset="0.5824" style="stop-color:#DAE4FC"/>
						<stop  offset="0.9993" style="stop-color:#BDCEFA"/>
					</linearGradient>
					<path style="fill:url(#SVGID_00000000189423434782116400000004066970997971825805_);" d="M333.7,299l23,13.3
						c0.3,0.2,0.9,0.2,1.2-0.1l0,0c0.4-0.2,0.4-0.5,0.1-0.7l-23-13.3c-0.3-0.2-0.9-0.2-1.2,0.1l0,0
						C333.4,298.5,333.4,298.9,333.7,299z"/>
					
						<linearGradient id="SVGID_00000081621327632536324470000007094831381145502619_" gradientUnits="userSpaceOnUse" x1="376.8745" y1="192.2354" x2="325.649" y2="190.8415" gradientTransform="matrix(1 0 0 -1 0 502)">
						<stop  offset="0" style="stop-color:#FFFFFF"/>
						<stop  offset="0.5824" style="stop-color:#DAE4FC"/>
						<stop  offset="0.9993" style="stop-color:#BDCEFA"/>
					</linearGradient>
					<path style="fill:url(#SVGID_00000081621327632536324470000007094831381145502619_);" d="M344.2,308l10,5.8
						c0.3,0.2,0.9,0.2,1.2-0.1l0,0c0.4-0.2,0.4-0.5,0.1-0.7l-10-5.8c-0.3-0.2-0.9-0.2-1.2,0.1l0,0
						C343.9,307.5,343.9,307.8,344.2,308z"/>
					
						<linearGradient id="SVGID_00000099657387524877782180000013762271491191066505_" gradientUnits="userSpaceOnUse" x1="376.546" y1="204.3033" x2="325.3206" y2="202.9095" gradientTransform="matrix(1 0 0 -1 0 502)">
						<stop  offset="0" style="stop-color:#FFFFFF"/>
						<stop  offset="0.5824" style="stop-color:#DAE4FC"/>
						<stop  offset="0.9993" style="stop-color:#BDCEFA"/>
					</linearGradient>
					<path style="fill:url(#SVGID_00000099657387524877782180000013762271491191066505_);" d="M342.6,293.9l23,13.3
						c0.3,0.2,0.9,0.2,1.3-0.1l6.5-3.8c0.4-0.2,0.4-0.6,0.1-0.8l-23-13.3c-0.3-0.2-0.9-0.2-1.3,0.1l-6.5,3.8
						C342.3,293.4,342.3,293.7,342.6,293.9z"/>
					
						<linearGradient id="SVGID_00000024685056103113969770000012508298924205143959_" gradientUnits="userSpaceOnUse" x1="376.8336" y1="193.7336" x2="325.6082" y2="192.3397" gradientTransform="matrix(1 0 0 -1 0 502)">
						<stop  offset="0" style="stop-color:#FFFFFF"/>
						<stop  offset="0.5824" style="stop-color:#DAE4FC"/>
						<stop  offset="0.9993" style="stop-color:#BDCEFA"/>
					</linearGradient>
					<path style="fill:url(#SVGID_00000024685056103113969770000012508298924205143959_);" d="M325.1,304l23,13.3
						c0.3,0.2,0.9,0.2,1.3-0.1l3.1-1.8c0.4-0.2,0.4-0.6,0.1-0.8l-23-13.3c-0.3-0.2-0.9-0.2-1.3,0.1l-3.1,1.8
						C324.8,303.5,324.8,303.8,325.1,304z"/>
				</g>
			</g>
			<g>
				<g>
					<path class="st39" d="M322,306.5l24.6,14.2c1,0.6,2.8,0.5,3.9-0.2l25.8-14.9c0.6-0.4,1-0.9,1-1.3l0,0v1c0,0.5-0.3,0.9-1,1.3
						l-25.8,14.9c-1.2,0.7-2.9,0.7-3.9,0.2L322,307.5c-0.4-0.3-0.7-0.6-0.7-1v-1l0,0C321.4,305.9,321.6,306.3,322,306.5z"/>
				</g>
				
					<linearGradient id="SVGID_00000140715868997354233680000015100473163618223033_" gradientUnits="userSpaceOnUse" x1="379.1013" y1="192.0188" x2="308.3117" y2="186.9771" gradientTransform="matrix(1 0 0 -1 0 502)">
					<stop  offset="0" style="stop-color:#FFFFFF"/>
					<stop  offset="0.5824" style="stop-color:#DAE4FC"/>
					<stop  offset="0.9993" style="stop-color:#BDCEFA"/>
				</linearGradient>
				<path style="fill:url(#SVGID_00000140715868997354233680000015100473163618223033_);" d="M322,305.8l24.6,14.2
					c1,0.6,2.8,0.5,3.9-0.2l25.8-14.9c0.4-0.3,0.7-0.6,0.9-0.9c0.2,0.5,0,1.2-0.9,1.7l-25.8,14.9c-1.2,0.7-2.9,0.7-3.9,0.2
					L322,306.5c-0.6-0.4-0.8-0.9-0.6-1.4C321.6,305.4,321.7,305.6,322,305.8z"/>
			</g>
			<g>
				<g>
					<path class="st39" d="M322,308.3l24.6,14.2c1,0.6,2.8,0.5,3.9-0.2l25.8-14.9c0.6-0.4,1-0.9,1-1.3l0,0v1c0,0.5-0.3,0.9-1,1.3
						l-25.8,14.9c-1.2,0.7-2.9,0.7-3.9,0.2L322,309.3c-0.4-0.3-0.7-0.6-0.7-1v-1l0,0C321.4,307.7,321.6,308,322,308.3z"/>
				</g>
				
					<linearGradient id="SVGID_00000170974248373900282780000000085800882214703805_" gradientUnits="userSpaceOnUse" x1="379.2253" y1="190.2776" x2="308.4357" y2="185.236" gradientTransform="matrix(1 0 0 -1 0 502)">
					<stop  offset="0" style="stop-color:#FFFFFF"/>
					<stop  offset="0.5824" style="stop-color:#DAE4FC"/>
					<stop  offset="0.9993" style="stop-color:#BDCEFA"/>
				</linearGradient>
				<path style="fill:url(#SVGID_00000170974248373900282780000000085800882214703805_);" d="M322,307.5l24.6,14.2
					c1,0.6,2.8,0.5,3.9-0.2l25.8-14.9c0.4-0.3,0.7-0.6,0.9-0.9c0.2,0.5,0,1.2-0.9,1.7l-25.8,14.9c-1.2,0.7-2.9,0.7-3.9,0.2
					L322,308.3c-0.6-0.4-0.8-0.9-0.6-1.4C321.6,307.1,321.7,307.3,322,307.5z"/>
			</g>
			<g>
				<g>
					<path class="st39" d="M322,310.1l24.6,14.2c1,0.6,2.8,0.5,3.9-0.2l25.8-14.9c0.6-0.4,1-0.9,1-1.3l0,0v1c0,0.5-0.3,0.9-1,1.3
						l-25.8,14.9c-1.2,0.7-2.9,0.7-3.9,0.2L322,311.1c-0.4-0.3-0.7-0.6-0.7-1v-1l0,0C321.4,309.5,321.6,309.8,322,310.1z"/>
				</g>
				
					<linearGradient id="SVGID_00000060002290507022464250000006545771452033004951_" gradientUnits="userSpaceOnUse" x1="379.3529" y1="188.4867" x2="308.5633" y2="183.4451" gradientTransform="matrix(1 0 0 -1 0 502)">
					<stop  offset="0" style="stop-color:#FFFFFF"/>
					<stop  offset="0.5824" style="stop-color:#DAE4FC"/>
					<stop  offset="0.9993" style="stop-color:#BDCEFA"/>
				</linearGradient>
				<path style="fill:url(#SVGID_00000060002290507022464250000006545771452033004951_);" d="M322,309.3l24.6,14.2
					c1,0.6,2.8,0.5,3.9-0.2l25.8-14.9c0.4-0.3,0.7-0.6,0.9-0.9c0.2,0.5,0,1.2-0.9,1.7l-25.8,14.9c-1.2,0.7-2.9,0.7-3.9,0.2
					L322,310.1c-0.6-0.4-0.8-0.9-0.6-1.4C321.6,308.9,321.7,309.1,322,309.3z"/>
			</g>
		</g>
	</g>
	<g>
		<g>
			<ellipse class="st28" cx="279.4" cy="386.1" rx="12.8" ry="7.4"/>
			
				<linearGradient id="SVGID_00000039853244638193070570000012313499611841677444_" gradientUnits="userSpaceOnUse" x1="304.8322" y1="111.9519" x2="272.2613" y2="109.7908" gradientTransform="matrix(1 0 0 -1 0 502)">
				<stop  offset="0" style="stop-color:#E4F2FF;stop-opacity:0"/>
				<stop  offset="5.554383e-02" style="stop-color:#E1EFFF;stop-opacity:5.558312e-02"/>
				<stop  offset="0.6478" style="stop-color:#C7D7FB;stop-opacity:0.6483"/>
				<stop  offset="0.9993" style="stop-color:#BDCEFA"/>
			</linearGradient>
			<path style="fill:url(#SVGID_00000039853244638193070570000012313499611841677444_);" d="M288.4,391.3c-5,2.9-13.1,2.9-18.1,0
				c-2.5-1.4-3.7-3.3-3.7-5.2v4.6c0,1.9,1.2,3.8,3.7,5.3c5,2.9,13.1,2.9,18.1,0c2.5-1.5,3.8-3.4,3.7-5.3v-4.6
				C292.1,388,290.9,389.9,288.4,391.3z"/>
			
				<linearGradient id="SVGID_00000135664085664729915440000013562643053144449961_" gradientUnits="userSpaceOnUse" x1="268.2838" y1="118.4375" x2="290.4973" y2="118.4375" gradientTransform="matrix(1 0 0 -1 0 502)">
				<stop  offset="0" style="stop-color:#00E9FF"/>
				<stop  offset="0.1813" style="stop-color:#01D1FF"/>
				<stop  offset="0.5456" style="stop-color:#02A6FF"/>
				<stop  offset="0.8306" style="stop-color:#038CFF"/>
				<stop  offset="0.9993" style="stop-color:#0382FF"/>
			</linearGradient>
			<path style="fill:url(#SVGID_00000135664085664729915440000013562643053144449961_);" d="M271.5,384.1c4.3-2.5,11.4-2.5,15.7,0
				c1.6,0.9,2.6,2.1,3,3.3c0.7-2-0.3-4.2-3-5.8c-4.3-2.5-11.4-2.5-15.7,0c-2.7,1.6-3.7,3.8-3,5.8C268.9,386.1,269.9,385,271.5,384.1
				z"/>
			<g>
				<path class="st3" d="M287.2,384.1c-4.3-2.5-11.4-2.5-15.7,0c-1.6,0.9-2.6,2.1-3,3.3c0.4,1.2,1.4,2.4,3,3.3
					c4.3,2.5,11.4,2.5,15.7,0c1.6-0.9,2.6-2.1,3-3.3C289.9,386.1,288.8,385,287.2,384.1z"/>
			</g>
		</g>
		<g>
			<path class="st3" d="M278.4,338.1H277v-1.5c0-0.3-0.2-0.5-0.5-0.5s-0.5,0.2-0.5,0.5v1.5h-1.5c-0.3,0-0.5,0.2-0.5,0.5
				s0.2,0.5,0.5,0.5h1.5v1.5c0,0.3,0.2,0.5,0.5,0.5s0.5-0.2,0.5-0.5v-1.5h1.5c0.3,0,0.5-0.2,0.5-0.5S278.7,338.1,278.4,338.1z"/>
			<path class="st3" d="M286.4,350.1h-1.5v-1.5c0-0.3-0.2-0.5-0.5-0.5s-0.5,0.2-0.5,0.5v1.5h-1.5c-0.3,0-0.5,0.2-0.5,0.5
				s0.2,0.5,0.5,0.5h1.5v1.5c0,0.3,0.2,0.5,0.5,0.5s0.5-0.2,0.5-0.5v-1.5h1.5c0.3,0,0.5-0.2,0.5-0.5
				C286.9,350.3,286.6,350.1,286.4,350.1z"/>
			<path class="st3" d="M277,365.5h-1.5V364c0-0.3-0.2-0.5-0.5-0.5s-0.5,0.2-0.5,0.5v1.5H273c-0.3,0-0.5,0.2-0.5,0.5
				s0.2,0.5,0.5,0.5h1.5v1.5c0,0.3,0.2,0.5,0.5,0.5s0.5-0.2,0.5-0.5v-1.5h1.5c0.3,0,0.5-0.2,0.5-0.5S277.3,365.5,277,365.5z"/>
			<path class="st3" d="M283.6,377h-1.5v-1.5c0-0.3-0.2-0.5-0.5-0.5s-0.5,0.2-0.5,0.5v1.5h-1.5c-0.3,0-0.5,0.2-0.5,0.5
				s0.2,0.5,0.5,0.5h1.5v1.5c0,0.3,0.2,0.5,0.5,0.5s0.5-0.2,0.5-0.5V378h1.5c0.3,0,0.5-0.2,0.5-0.5S283.9,377,283.6,377z"/>
			<circle class="st5" cx="281.7" cy="343.5" r="1"/>
			<path class="st5" d="M286.5,360.2c0,0.6-0.5,1-1,1s-1-0.5-1-1s0.5-1,1-1S286.5,359.6,286.5,360.2z"/>
			<path class="st5" d="M278.8,371.6c0,0.6-0.5,1-1,1c-0.6,0-1-0.5-1-1s0.5-1,1-1C278.3,370.5,278.8,371,278.8,371.6z"/>
			<path class="st5" d="M282.2,363.6c0,0.6-0.5,1-1,1c-0.6,0-1-0.5-1-1c0-0.6,0.5-1,1-1C281.8,362.5,282.2,363,282.2,363.6z"/>
			<path class="st5" d="M274.3,360.2c0,0.6-0.5,1-1,1c-0.6,0-1-0.5-1-1s0.5-1,1-1C273.9,359.1,274.3,359.6,274.3,360.2z"/>
			<path class="st5" d="M278.3,350.9c0,0.6-0.5,1-1,1c-0.6,0-1-0.5-1-1s0.5-1,1-1C277.8,349.8,278.3,350.3,278.3,350.9z"/>
			<path class="st5" d="M285.5,335.9c0,0.6-0.5,1-1,1s-1-0.5-1-1s0.5-1,1-1S285.5,335.3,285.5,335.9z"/>
			<path class="st5" d="M275.1,332.8c0,0.6-0.5,1-1,1s-1-0.5-1-1c0-0.6,0.5-1,1-1S275.1,332.2,275.1,332.8z"/>
			
				<rect x="271.5" y="345.1" transform="matrix(0.7071 -0.7071 0.7071 0.7071 -165.2799 294.8964)" class="st4" width="3.7" height="3.7"/>
			
				<rect x="279.4" y="327.6" transform="matrix(0.7071 -0.7071 0.7071 0.7071 -150.5454 295.3678)" class="st4" width="3.7" height="3.7"/>
			
				<rect x="283.6" y="366.3" transform="matrix(0.7071 -0.7071 0.7071 0.7071 -176.71 309.6916)" class="st4" width="3.7" height="3.7"/>
			
				<rect x="276.4" y="355" transform="matrix(0.7071 -0.7071 0.7071 0.7071 -170.8326 301.282)" class="st4" width="3.7" height="3.7"/>
		</g>
		
			<linearGradient id="SVGID_00000094606920278620002800000001399070705706935171_" gradientUnits="userSpaceOnUse" x1="279.35" y1="187.7815" x2="279.35" y2="79.4603" gradientTransform="matrix(1 0 0 -1 0 502)">
			<stop  offset="0" style="stop-color:#FFFFFF;stop-opacity:0"/>
			<stop  offset="1" style="stop-color:#00E9FF"/>
		</linearGradient>
		<path style="fill:url(#SVGID_00000094606920278620002800000001399070705706935171_);" d="M268.3,385.8c-0.1,1.7,0.9,3.5,3.2,4.8
			c4.3,2.5,11.4,2.5,15.7,0c2.3-1.3,3.4-3.1,3.2-4.8v-78.4c0.1-1.7-0.9-3.5-3.2-4.8c-4.3-2.5-11.4-2.5-15.7,0
			c-2.3,1.3-3.4,3.1-3.2,4.8V385.8z"/>
	</g>
	<g>
		
			<linearGradient id="SVGID_00000067945816072444000490000005780422925548422572_" gradientUnits="userSpaceOnUse" x1="160.9" y1="167.8539" x2="176.4068" y2="287.3453" gradientTransform="matrix(1 0 0 -1 0 502)">
			<stop  offset="0" style="stop-color:#0382FF;stop-opacity:0"/>
			<stop  offset="0.6443" style="stop-color:#79A6FE;stop-opacity:0.645"/>
			<stop  offset="0.9989" style="stop-color:#B6B9FE"/>
		</linearGradient>
		<path style="fill:url(#SVGID_00000067945816072444000490000005780422925548422572_);" d="M189.9,262.3l-45.4,26.2
			c-3.6,2.1-6.5,7.1-6.5,11.2v5.4c0,4.1,2.9,5.8,6.5,3.7l33.8-19.5l-2.1,10.7l11.7-16.2l2-1.1c3.6-2.1,6.5-7.1,6.5-11.2V266
			C196.3,261.9,193.4,260.3,189.9,262.3z"/>
		<g>
			
				<linearGradient id="SVGID_00000001629730312710258390000004896369960595274172_" gradientUnits="userSpaceOnUse" x1="172.7158" y1="224.4167" x2="112.5734" y2="166.9903" gradientTransform="matrix(1 0 0 -1 0 502)">
				<stop  offset="0" style="stop-color:#FFFFFF"/>
				<stop  offset="0.3656" style="stop-color:#E1E9FD;stop-opacity:0.6341"/>
				<stop  offset="0.7632" style="stop-color:#C7D5FB;stop-opacity:0.2363"/>
				<stop  offset="0.9993" style="stop-color:#BDCEFA;stop-opacity:0"/>
			</linearGradient>
			<path style="fill:url(#SVGID_00000001629730312710258390000004896369960595274172_);" d="M189.3,271.2l-44.2,25.5
				c-0.5,0.3-0.8,0-0.8-0.6l0,0c0-0.6,0.4-1.3,0.8-1.6l44.2-25.5c0.5-0.3,0.8,0,0.8,0.6l0,0C190.1,270.2,189.7,270.9,189.3,271.2z"
				/>
			
				<linearGradient id="SVGID_00000029728304492390287620000000957905976064331412_" gradientUnits="userSpaceOnUse" x1="173.4244" y1="223.6745" x2="113.2819" y2="166.2482" gradientTransform="matrix(1 0 0 -1 0 502)">
				<stop  offset="0" style="stop-color:#FFFFFF"/>
				<stop  offset="0.3656" style="stop-color:#E1E9FD;stop-opacity:0.6341"/>
				<stop  offset="0.7632" style="stop-color:#C7D5FB;stop-opacity:0.2363"/>
				<stop  offset="0.9993" style="stop-color:#BDCEFA;stop-opacity:0"/>
			</linearGradient>
			<path style="fill:url(#SVGID_00000029728304492390287620000000957905976064331412_);" d="M166.6,290L145,302.5
				c-0.4,0.2-0.7,0-0.7-0.5v-0.3c0-0.5,0.3-1.2,0.7-1.4l21.6-12.5c0.4-0.2,0.7,0,0.7,0.5v0.3C167.3,289.2,167,289.8,166.6,290z"/>
		</g>
	</g>
	<g>
		<g>
			<g>
				<g>
					<g>
						<path d="M215.7,291c0,0.2,0.1,0.3,0.3,0.4c0.1,0,0-0.9,0.2-0.7c0.1,0,3.1,2.4,4.7,1.9c0.2,0,0.2-0.2,0.2-0.4v-0.4
							c0-0.4-0.6-1.1-1.6-2c-1.1-1-1.7-1.7-3.3-0.8c-0.5,0.3-0.6,0.5-0.6,0.6L215.7,291z"/>
						<path class="st88" d="M219.6,290c1.3,1.2,2,2,1.3,2.4s-2-0.2-3.3-1.2c-1.2-0.9-2.9-1-1.3-1.9
							C217.9,288.3,218.6,288.9,219.6,290z"/>
					</g>
				</g>
				<path class="st89" d="M218.4,289.3l-0.1-9.8c0-0.5-0.3-0.9-0.7-1.1l-0.8-0.3l-3.2,2.1l1.6,0.8c0,0-0.3,2.7,0.5,5.2
					c0,0,0.5,1.1,0.4,3.7C216.1,290,217.8,290.5,218.4,289.3z"/>
			</g>
			<g>
				<g>
					<g>
						<path d="M211,293.4c0,0.2,0.1,0.3,0.3,0.4c0.1,0,0-0.9,0.2-0.7c0.1,0,3.1,2.4,4.7,1.9c0.2,0,0.2-0.2,0.2-0.4v-0.4
							c0-0.4-0.6-1.1-1.6-2c-1.1-1-1.7-1.7-3.3-0.8c-0.5,0.3-0.6,0.5-0.6,0.6L211,293.4z"/>
						<path class="st88" d="M214.9,292.3c1.3,1.2,2,2,1.3,2.4s-2-0.2-3.3-1.2c-1.2-0.9-2.9-1-1.3-1.9
							C213.2,290.6,213.9,291.3,214.9,292.3z"/>
					</g>
				</g>
				<path class="st89" d="M213.7,291.7l-0.1-11.5l-3.8,1.2l0.7,1.9c0,0-0.3,2.5,0.5,5c0,0,0.5,1.1,0.4,3.7
					C211.3,292,212.7,292.8,213.7,291.7z"/>
			</g>
			<path class="st90" d="M210.3,268.6c0,0,4.2-3.8,1.6-10.7l-2,7.1L210.3,268.6z"/>
			<g>
				<path class="st89" d="M215.3,277.9L215.3,277.9c-0.7,0.2-1.3-0.2-1.5-0.8l-3.4-11.5c-0.2-0.7,0.2-1.3,0.8-1.5l0,0
					c0.7-0.2,1.3,0.2,1.5,0.8l3.4,11.5C216.3,277,215.9,277.7,215.3,277.9z"/>
			</g>
			<path class="st91" d="M211.8,274.9l5.7,3.5c0,0-2-0.5-7.1,4.9l-5.6-3.3L211.8,274.9z"/>
			<path class="st92" d="M205.5,280.6c0,0,0.1,0,0.2,0.1c0.8,0.1,3.8-0.6,6.8-4c0.2-0.3,0.4-0.7,0.4-1v-9.6c0-0.7-0.3-1.2-0.7-1.5
				l-2.2-1.3c-0.4-0.2-1-0.2-1.6,0.1l-3.1,1.8c-1.2,0.7-2.3,2.5-2.3,3.9v9.6c0,0.2,0.1,0.4,0.2,0.5L205.5,280.6z"/>
			<path class="st57" d="M205.9,265.9c0,0.2,0.1,0.5,0.5,0.7c0.6,0.4,1.6,0.4,2.2,0c0.3-0.2,0.5-0.4,0.5-0.7v-2.1
				c0-0.2-0.1-0.5-0.5-0.7c-0.6-0.4-1.6-0.4-2.2,0c-0.3,0.2-0.5,0.4-0.5,0.7V265.9z"/>
			<circle class="st89" cx="207.4" cy="260.5" r="4.4"/>
			<path class="st90" d="M208.7,268.6c0,0-3.2-3.6-1-10.2l4,1.4c0,0,1.4-3.4-3.2-4.4c0,0-3-0.7-4.1,1.9c0,0-2.5,0.2-1.5,5.2
				C203,262.4,203.1,267.2,208.7,268.6z"/>
			<path class="st93" d="M204.4,266"/>
			<path class="st94" d="M210.4,283.3"/>
		</g>
		<g>
			<polygon class="st39" points="219.4,277.9 211.1,282.6 204.8,279.2 213.3,274.4 			"/>
			
				<linearGradient id="SVGID_00000177465471709037620470000001447749060346054330_" gradientUnits="userSpaceOnUse" x1="222.7019" y1="234.4284" x2="210.5103" y2="219.5863" gradientTransform="matrix(1 0 0 -1 0 502)">
				<stop  offset="0" style="stop-color:#FFFFFF"/>
				<stop  offset="0.5824" style="stop-color:#DAE4FC"/>
				<stop  offset="0.9993" style="stop-color:#BDCEFA"/>
			</linearGradient>
			<polygon style="fill:url(#SVGID_00000177465471709037620470000001447749060346054330_);" points="219.4,277.9 220.7,269.6 
				211.5,274.9 211.1,282.6 			"/>
		</g>
		<g>
			<path class="st89" d="M212.8,278.2L212.8,278.2c-0.5,0.4-1.3,0.4-1.8-0.1l-7.8-9.1c-0.4-0.5-0.4-1.3,0.1-1.8l0,0
				c0.5-0.4,1.3-0.4,1.8,0.1l7.8,9.1C213.4,277,213.3,277.8,212.8,278.2z"/>
		</g>
	</g>
	<g>
		<g>
			<g>
				<g>
					<g>
						<path class="st96" d="M276.9,286.2c-0.1,0.1-0.2,0.2-0.2,0.5c0,0.1,0.7-0.4,0.7-0.2c0,0.1-0.5,3.7,0.6,4.9
							c0.1,0.1,0.3,0.1,0.4,0l0.3-0.2c0.4-0.2,0.6-1,0.9-2.3c0.4-1.4,0.6-2.3-0.9-3.2c-0.4-0.3-0.7-0.3-0.8-0.2L276.9,286.2z"/>
						<path class="st88" d="M279.7,289c-0.4,1.7-0.7,2.6-1.4,2.2c-0.6-0.4-0.8-1.7-0.6-3.4c0.2-1.4-0.5-2.9,1-2
							C280.3,286.8,280.1,287.7,279.7,289z"/>
					</g>
				</g>
				<path class="st97" d="M289.5,278.4l-3.1,1.1l-1.3,1.4c0,0-2.2,0.9-4,2.8c0,0-0.7,1-2.9,2.1c0,0,0,1.6,1.4,1.8l8.9-5.1
					c0.6-0.4,1-1,1.1-1.7C289.6,280.3,289.6,279.5,289.5,278.4z"/>
			</g>
		</g>
		<g>
			<g>
				<g>
					<path class="st54" d="M282.9,294.1c0,0.2,0.1,0.3,0.3,0.4c0.1,0,0-0.9,0.2-0.7c0.1,0,3,2.3,4.6,1.9c0.2,0,0.2-0.2,0.2-0.3V295
						c0-0.4-0.6-1-1.5-1.9c-1-1-1.7-1.6-3.2-0.7c-0.4,0.3-0.6,0.4-0.6,0.6V294.1z"/>
					<path class="st88" d="M286.8,293c1.2,1.2,1.9,1.9,1.3,2.3s-1.9-0.2-3.2-1.2c-1.1-0.9-2.8-1-1.3-1.8
						C285.1,291.4,285.7,292,286.8,293z"/>
				</g>
			</g>
			<path class="st89" d="M285.5,292.5l-0.1-11.1l-3,1v2c0,0-0.3,2.4,0.5,4.9c0,0,0.5,1.1,0.4,3.6
				C283.3,292.8,284.6,293.6,285.5,292.5z"/>
		</g>
		<g>
			<path class="st97" d="M293.7,276.9L293.7,276.9c-0.6,0.3-1.3,0-1.6-0.6l-4.8-10.5c-0.3-0.6,0-1.3,0.6-1.6l0,0
				c0.6-0.3,1.3,0,1.6,0.6l4.8,10.5C294.6,275.9,294.3,276.6,293.7,276.9z"/>
		</g>
		<g>
			<polygon class="st39" points="294.2,275.7 286.7,271.4 286.7,265.4 294.2,269.7 			"/>
			<g>
				
					<linearGradient id="SVGID_00000118368609962032942920000011360905841593605565_" gradientUnits="userSpaceOnUse" x1="293.2478" y1="233.2797" x2="291.6845" y2="227.1468" gradientTransform="matrix(1 0 0 -1 0 502)">
					<stop  offset="0" style="stop-color:#FFFFFF"/>
					<stop  offset="0.3656" style="stop-color:#E1E9FD;stop-opacity:0.6341"/>
					<stop  offset="0.7632" style="stop-color:#C7D5FB;stop-opacity:0.2363"/>
					<stop  offset="0.9993" style="stop-color:#BDCEFA;stop-opacity:0"/>
				</linearGradient>
				<polygon style="fill:url(#SVGID_00000118368609962032942920000011360905841593605565_);" points="292.4,274.1 292.4,269.5 
					292.5,269.6 292.5,274.2 				"/>
				
					<linearGradient id="SVGID_00000088117058629262657740000001150631493788157571_" gradientUnits="userSpaceOnUse" x1="292.7037" y1="233.4184" x2="291.1404" y2="227.2854" gradientTransform="matrix(1 0 0 -1 0 502)">
					<stop  offset="0" style="stop-color:#FFFFFF"/>
					<stop  offset="0.3656" style="stop-color:#E1E9FD;stop-opacity:0.6341"/>
					<stop  offset="0.7632" style="stop-color:#C7D5FB;stop-opacity:0.2363"/>
					<stop  offset="0.9993" style="stop-color:#BDCEFA;stop-opacity:0"/>
				</linearGradient>
				<polygon style="fill:url(#SVGID_00000088117058629262657740000001150631493788157571_);" points="292,272.5 292,269.3 
					292.2,269.4 292.2,272.6 				"/>
				
					<linearGradient id="SVGID_00000122711910193319614490000003816983900772304516_" gradientUnits="userSpaceOnUse" x1="292.3999" y1="233.4958" x2="290.8366" y2="227.3629" gradientTransform="matrix(1 0 0 -1 0 502)">
					<stop  offset="0" style="stop-color:#FFFFFF"/>
					<stop  offset="0.3656" style="stop-color:#E1E9FD;stop-opacity:0.6341"/>
					<stop  offset="0.7632" style="stop-color:#C7D5FB;stop-opacity:0.2363"/>
					<stop  offset="0.9993" style="stop-color:#BDCEFA;stop-opacity:0"/>
				</linearGradient>
				<polygon style="fill:url(#SVGID_00000122711910193319614490000003816983900772304516_);" points="291.6,273.3 291.6,269.1 
					291.8,269.2 291.8,273.4 				"/>
				
					<linearGradient id="SVGID_00000085956668597228079910000004765014829969685157_" gradientUnits="userSpaceOnUse" x1="292.0593" y1="233.5827" x2="290.496" y2="227.4497" gradientTransform="matrix(1 0 0 -1 0 502)">
					<stop  offset="0" style="stop-color:#FFFFFF"/>
					<stop  offset="0.3656" style="stop-color:#E1E9FD;stop-opacity:0.6341"/>
					<stop  offset="0.7632" style="stop-color:#C7D5FB;stop-opacity:0.2363"/>
					<stop  offset="0.9993" style="stop-color:#BDCEFA;stop-opacity:0"/>
				</linearGradient>
				<polygon style="fill:url(#SVGID_00000085956668597228079910000004765014829969685157_);" points="291.3,273.4 291.3,268.9 
					291.4,269 291.4,273.5 				"/>
				
					<linearGradient id="SVGID_00000065060504946900882400000007976249518081467807_" gradientUnits="userSpaceOnUse" x1="291.3357" y1="233.7671" x2="289.7724" y2="227.6341" gradientTransform="matrix(1 0 0 -1 0 502)">
					<stop  offset="0" style="stop-color:#FFFFFF"/>
					<stop  offset="0.3656" style="stop-color:#E1E9FD;stop-opacity:0.6341"/>
					<stop  offset="0.7632" style="stop-color:#C7D5FB;stop-opacity:0.2363"/>
					<stop  offset="0.9993" style="stop-color:#BDCEFA;stop-opacity:0"/>
				</linearGradient>
				<polygon style="fill:url(#SVGID_00000065060504946900882400000007976249518081467807_);" points="290.9,270.3 290.9,268.7 
					291.1,268.8 291.1,270.4 				"/>
			</g>
		</g>
		
			<linearGradient id="SVGID_00000039136202952684398750000009043089892357329283_" gradientUnits="userSpaceOnUse" x1="280.4533" y1="223.0466" x2="289.7883" y2="223.0466" gradientTransform="matrix(1 0 0 -1 0 502)">
			<stop  offset="7.043800e-02" style="stop-color:#8347E2"/>
			<stop  offset="0.2746" style="stop-color:#773BD1"/>
			<stop  offset="0.6762" style="stop-color:#591CA6"/>
			<stop  offset="0.9996" style="stop-color:#3D007E"/>
		</linearGradient>
		<path style="fill:url(#SVGID_00000039136202952684398750000009043089892357329283_);" d="M280.5,278.8v4.1c0,0,4.8,1.6,9.3-4.1v-4
			L280.5,278.8z"/>
		<path class="st104" d="M282.6,280c0,0,0.1,0,0.2,0.1c0.8,0.1,3.7-0.6,6.6-3.8c0.2-0.3,0.4-0.6,0.4-0.9V266c0-0.7-0.2-1.2-0.7-1.4
			l-2.2-1.3c-0.4-0.2-0.9-0.2-1.6,0.1l-3,1.7c-1.2,0.7-2.2,2.4-2.2,3.8v9.3c0,0.2,0.1,0.4,0.2,0.4L282.6,280z"/>
		<path class="st57" d="M283.5,265.8c0,0.2,0.1,0.5,0.4,0.6c0.6,0.3,1.6,0.3,2.2,0c0.3-0.2,0.5-0.4,0.4-0.6v-2
			c0-0.2-0.1-0.5-0.4-0.6c-0.6-0.3-1.6-0.3-2.2,0c-0.3,0.2-0.5,0.4-0.4,0.6V265.8z"/>
		<g>
			<path class="st105" d="M275.3,279L275.3,279c-0.6-0.3-0.8-1-0.5-1.6L280,267c0.3-0.6,1-0.8,1.6-0.5l0,0c0.6,0.3,0.8,1,0.5,1.6
				l-5.2,10.4C276.6,279.1,275.9,279.3,275.3,279z"/>
		</g>
		<g>
			<path class="st54" d="M288.9,259.4l1.5,5.9c0.1,0.6-0.4,1-0.9,0.8l-3.5-1.5c-0.3-0.1-0.5-0.4-0.4-0.8l1.1-5.8
				c0.1-0.6,0.9-0.8,1.3-0.2l0.8,1.4C288.9,259.2,288.9,259.3,288.9,259.4z"/>
			<path class="st105" d="M283.6,262.9c0,0.5-0.4,0.7-0.8,0.5c-0.4-0.3-0.8-0.9-0.8-1.4s0.4-0.7,0.8-0.5
				C283.2,261.8,283.6,262.4,283.6,262.9z"/>
			<circle class="st105" cx="285" cy="260.5" r="4.2"/>
			<path class="st54" d="M280.9,261.1c0,0,3.6,2,5.3-3.1c0,0,0.9,2.2,3.3,1.7c0,0,0-3.4-3.5-4C286,255.6,279.9,255,280.9,261.1z"/>
			<path class="st54" d="M282.9,261.2l1.5,5.9c0.1,0.6-0.4,1-0.9,0.8l-3.5-1.5c-0.3-0.1-0.5-0.4-0.4-0.8l1.1-5.8
				c0.1-0.6,0.9-0.8,1.3-0.2l0.8,1.4C282.8,261.1,282.8,261.2,282.9,261.2z"/>
		</g>
	</g>
	<g>
		<g>
			<path class="st55" d="M307.2,351.9L307.2,351.9c0.6,0.3,1.3,0,1.5-0.6l3.8-8.3c0.3-0.6,0-1.3-0.6-1.5l0,0c-0.6-0.3-1.3,0-1.5,0.6
				l-3.8,8.3C306.4,351,306.6,351.6,307.2,351.9z"/>
			<path class="st39" d="M309.2,343.1l1.2-2.7c0.4-0.9,1.5-1.3,2.4-0.9l0,0c0.9,0.4,1.3,1.5,0.9,2.4l-1.2,2.7
				C312.5,344.6,310.7,345.6,309.2,343.1z"/>
		</g>
		<g>
			<g>
				<path class="st106" d="M314.7,352c0.1,0.1,0.1,0.2,0.1,0.4v4c0,0.8-0.8,1.4-1.7,1.4l0,0c-1,0-1.8-0.6-1.8-1.4v-5
					c0-0.2,0.1-0.4,0.3-0.4C312.2,350.6,313.8,350.3,314.7,352z"/>
			</g>
			<g>
				<g>
					<path class="st96" d="M323,359.8c0.5,0.2,0.2,1.4,0.2,2.6c0,1.6-0.3,3.2-1,3.6c-0.2,0.1-0.3,0.1-0.5,0l-0.7-0.4
						c-0.4-0.2-0.7-1.2-1.1-2.6c-0.4-1.6-0.7-2.6,1-3.6c0.5-0.3,0.8-0.4,0.9-0.3L323,359.8z"/>
					<path class="st107" d="M319.8,363.1c0.5,1.9,0.9,3,1.6,2.6s0.9-2,0.6-3.9c-0.2-1.6,0.6-3.4-1.1-2.3
						C319.1,360.5,319.4,361.5,319.8,363.1z"/>
				</g>
				<path class="st106" d="M319.5,361.6c-0.1,0-0.2,0-0.3-0.1l-7.2-4c-0.7-0.4-0.8-1.4-0.4-2.2l0,0c0.5-0.8,1.4-1.2,2.1-0.9l8.1,4.5
					c0.2,0.1,0.3,0.3,0.2,0.5C321.8,360.1,321.3,361.6,319.5,361.6z"/>
			</g>
		</g>
		<g>
			<g>
				<path class="st96" d="M318.4,367.5c0.1,0.5-1.2,0.8-2.2,1.4c-1.4,0.8-2.9,1.3-3.7,0.8c-0.2-0.1-0.3-0.2-0.3-0.4v-0.8
					c0-0.5,0.7-1.2,1.7-2.2c1.2-1.1,1.9-1.9,3.7-0.8c0.5,0.3,0.7,0.5,0.7,0.7L318.4,367.5z"/>
				<path class="st107" d="M314,366.3c-1.4,1.4-2.2,2.2-1.5,2.6s2.2-0.2,3.7-1.3c1.3-1,3.2-1.1,1.5-2.1
					C315.9,364.4,315.1,365.1,314,366.3z"/>
			</g>
			<path class="st108" d="M315.1,365.3c-0.1-0.1-0.1-0.2-0.1-0.4v-12.2c0-0.8,0.8-1.4,1.8-1.4l0,0c1,0,1.8,0.6,1.8,1.4V366
				c0,0.2-0.1,0.4-0.3,0.4C317.6,366.6,315.9,366.9,315.1,365.3z"/>
		</g>
		<path class="st28" d="M318,354.9h-0.1c-0.8,0.1-3.6-0.6-6.4-3.7c-0.2-0.3-0.4-0.6-0.4-0.9v-9c0-0.7,0.2-1.2,0.6-1.4l2.1-1.2
			c0.4-0.2,0.9-0.2,1.5,0.1l2.9,1.7c1.2,0.7,2.1,2.3,2.1,3.7v9c0,0.2-0.1,0.4-0.2,0.4L318,354.9z"/>
		<path class="st109" d="M317.1,341.2c0,0.2-0.1,0.4-0.4,0.6c-0.6,0.3-1.5,0.3-2.1,0c-0.3-0.2-0.4-0.4-0.4-0.6v-2
			c0-0.2,0.1-0.4,0.4-0.6c0.6-0.3,1.5-0.3,2.1,0c0.3,0.2,0.4,0.4,0.4,0.6V341.2z"/>
		<g>
			<path class="st55" d="M325.1,354L325.1,354c0.6-0.3,0.8-1,0.5-1.6l-4.1-8.1c-0.3-0.6-1-0.8-1.6-0.5l0,0c-0.6,0.3-0.8,1-0.5,1.6
				l4.1,8.1C323.8,354.1,324.5,354.3,325.1,354z"/>
			<path class="st39" d="M319.5,346.9l-1.3-2.6c-0.4-0.9-0.1-2,0.8-2.4l0,0c0.9-0.4,2-0.1,2.4,0.8l1.3,2.6
				C322.7,345.3,322.3,347.4,319.5,346.9z"/>
		</g>
		<path class="st55" d="M311.5,336.1c0,2.3,1.8,4.1,4.1,4.1s4.1-1.8,4.1-4.1s-1.8-4.1-4.1-4.1S311.5,333.8,311.5,336.1z"/>
		<path class="st110" d="M319,331.2c3.5,1.2,1.8,6.3-0.8,8.2c-1.2-0.7,0.3-1.9-1.4-1.1c-0.3-1.6,0.4-1.1,0-3.2
			c-1.8,0.9-5.2-0.2-5.8-1.9c0.6-0.3,1.3-2,2.7-2.7C315.6,329.7,318,330.1,319,331.2z"/>
		<path class="st55" d="M317,338.4c0,0.5,0.3,0.7,0.8,0.4c0.4-0.2,0.8-0.8,0.8-1.3s-0.3-0.7-0.8-0.4
			C317.3,337.3,317,337.9,317,338.4z"/>
	</g>
	<rect x="113.1" y="124.3" class="st111" width="310.8" height="310.8"/>
</g>
<g id="DESIGNED_BY_FREEPIK">
</g>
</svg>
